<?plantuml 1.2026.1?><svg xmlns="http://www.w3.org/2000/svg" xmlns:xlink="http://www.w3.org/1999/xlink" contentStyleType="text/css" data-diagram-type="DESCRIPTION" height="630px" preserveAspectRatio="none" style="width:657px;height:630px;background:#FAFAFA;" version="1.1" viewBox="0 0 657 630" width="657px" zoomAndPan="magnify"><title>TSIM Component Architecture
(Domain-Agnostic Safety Element)</title><defs/><g><rect fill="#FAFAFA" height="630" style="stroke:none;stroke-width:1;" width="657" x="0" y="0"/><g class="title" data-source-line="7"><text fill="#000000" font-family="sans-serif" font-size="14" font-weight="bold" lengthAdjust="spacing" textLength="215.8447" x="214.0106" y="23.5352">TSIM Component Architecture</text><text fill="#000000" font-family="sans-serif" font-size="14" font-weight="bold" lengthAdjust="spacing" textLength="249.2998" x="197.283" y="40.0234">(Domain-Agnostic Safety Element)</text></g><!--cluster Thermal Sensor Interface Module (TSIM)--><g class="cluster" data-qualified-name="Thermal Sensor Interface Module .TSIM." data-source-line="9" id="ent0002"><path d="M8.5,59.9766 L298.3799,59.9766 A3.75,3.75 0 0 1 300.8799,62.4766 L307.8799,82.4648 L307.5,82.4648 A2.5,2.5 0 0 1 310,84.9648 L310,455.5366 A2.5,2.5 0 0 1 307.5,458.0366 L8.5,458.0366 A2.5,2.5 0 0 1 6,455.5366 L6,62.4766 A2.5,2.5 0 0 1 8.5,59.9766" fill="none" style="stroke:#000000;stroke-width:1.5;"/><line style="stroke:#000000;stroke-width:1.5;" x1="6" x2="307.8799" y1="82.4648" y2="82.4648"/><text fill="#000000" font-family="sans-serif" font-size="14" font-weight="bold" lengthAdjust="spacing" textLength="288.8799" x="10" y="75.5117">Thermal Sensor Interface Module (TSIM)</text></g><!--cluster Integration (SEooC Assumptions)--><g class="cluster" data-qualified-name="Integration .SEooC Assumptions." data-source-line="15" id="ent0006"><path d="M72.5,509.1666 L311.7393,509.1666 A3.75,3.75 0 0 1 314.2393,511.6666 L321.2393,531.6548 L449.5,531.6548 A2.5,2.5 0 0 1 452,534.1548 L452,620.6466 A2.5,2.5 0 0 1 449.5,623.1466 L72.5,623.1466 A2.5,2.5 0 0 1 70,620.6466 L70,511.6666 A2.5,2.5 0 0 1 72.5,509.1666" fill="none" style="stroke:#000000;stroke-width:1.5;"/><line style="stroke:#000000;stroke-width:1.5;" x1="70" x2="321.2393" y1="531.6548" y2="531.6548"/><text fill="#000000" font-family="sans-serif" font-size="14" font-weight="bold" lengthAdjust="spacing" textLength="238.2393" x="74" y="524.7017">Integration (SEooC Assumptions)</text></g><!--entity SensorDriver--><g class="entity" data-qualified-name="Thermal Sensor Interface Module .TSIM..SensorDriver" data-source-line="10" id="ent0003"><rect fill="#F1F1F1" height="62.9766" rx="2.5" ry="2.5" style="stroke:#181818;stroke-width:0.5;" width="156.2793" x="135.86" y="94.9766"/><rect fill="#F1F1F1" height="10" style="stroke:#181818;stroke-width:0.5;" width="15" x="272.1393" y="99.9766"/><rect fill="#F1F1F1" height="2" style="stroke:#181818;stroke-width:0.5;" width="4" x="270.1393" y="101.9766"/><rect fill="#F1F1F1" height="2" style="stroke:#181818;stroke-width:0.5;" width="4" x="270.1393" y="105.9766"/><text fill="#000000" font-family="sans-serif" font-size="14" lengthAdjust="spacing" textLength="90.959" x="150.86" y="128.5117">Sensor Driver</text><text fill="#000000" font-family="sans-serif" font-size="14" lengthAdjust="spacing" textLength="116.2793" x="150.86" y="145">ARCH_FUNC_001</text></g><!--entity TempFilter--><g class="entity" data-qualified-name="Thermal Sensor Interface Module .TSIM..TempFilter" data-source-line="11" id="ent0004"><rect fill="#F1F1F1" height="62.9766" rx="2.5" ry="2.5" style="stroke:#181818;stroke-width:0.5;" width="166.041" x="126.98" y="234.9466"/><rect fill="#F1F1F1" height="10" style="stroke:#181818;stroke-width:0.5;" width="15" x="273.021" y="239.9466"/><rect fill="#F1F1F1" height="2" style="stroke:#181818;stroke-width:0.5;" width="4" x="271.021" y="241.9466"/><rect fill="#F1F1F1" height="2" style="stroke:#181818;stroke-width:0.5;" width="4" x="271.021" y="245.9466"/><text fill="#000000" font-family="sans-serif" font-size="14" lengthAdjust="spacing" textLength="126.041" x="141.98" y="268.4817">Temperature Filter</text><text fill="#000000" font-family="sans-serif" font-size="14" lengthAdjust="spacing" textLength="116.2793" x="141.98" y="284.97">ARCH_FUNC_002</text></g><!--entity StateMachine--><g class="entity" data-qualified-name="Thermal Sensor Interface Module .TSIM..StateMachine" data-source-line="12" id="ent0005"><rect fill="#F1F1F1" height="62.9766" rx="2.5" ry="2.5" style="stroke:#181818;stroke-width:0.5;" width="156.2793" x="126.86" y="379.0566"/><rect fill="#F1F1F1" height="10" style="stroke:#181818;stroke-width:0.5;" width="15" x="263.1393" y="384.0566"/><rect fill="#F1F1F1" height="2" style="stroke:#181818;stroke-width:0.5;" width="4" x="261.1393" y="386.0566"/><rect fill="#F1F1F1" height="2" style="stroke:#181818;stroke-width:0.5;" width="4" x="261.1393" y="390.0566"/><text fill="#000000" font-family="sans-serif" font-size="14" lengthAdjust="spacing" textLength="94.1582" x="141.86" y="412.5917">State Machine</text><text fill="#000000" font-family="sans-serif" font-size="14" lengthAdjust="spacing" textLength="116.2793" x="141.86" y="429.08">ARCH_FUNC_003</text></g><!--entity SensorHW--><g class="entity" data-qualified-name="Integration .SEooC Assumptions..SensorHW" data-source-line="16" id="ent0007"><rect fill="#F1F1F1" height="62.9766" rx="2.5" ry="2.5" style="stroke:#181818;stroke-width:0.5;" width="154.5293" x="281.74" y="544.1666"/><rect fill="#F1F1F1" height="10" style="stroke:#181818;stroke-width:0.5;" width="15" x="416.2693" y="549.1666"/><rect fill="#F1F1F1" height="2" style="stroke:#181818;stroke-width:0.5;" width="4" x="414.2693" y="551.1666"/><rect fill="#F1F1F1" height="2" style="stroke:#181818;stroke-width:0.5;" width="4" x="414.2693" y="555.1666"/><text fill="#000000" font-family="sans-serif" font-size="14" lengthAdjust="spacing" textLength="114.5293" x="296.74" y="577.7017">Sensor Hardware</text><text fill="#000000" font-family="sans-serif" font-size="14" lengthAdjust="spacing" textLength="100.8027" x="296.74" y="594.19">&#177;2&#176;C Accuracy</text></g><!--entity SystemCtrl--><g class="entity" data-qualified-name="Integration .SEooC Assumptions..SystemCtrl" data-source-line="17" id="ent0008"><rect fill="#F1F1F1" height="62.9766" rx="2.5" ry="2.5" style="stroke:#181818;stroke-width:0.5;" width="160.6885" x="85.66" y="544.1666"/><rect fill="#F1F1F1" height="10" style="stroke:#181818;stroke-width:0.5;" width="15" x="226.3485" y="549.1666"/><rect fill="#F1F1F1" height="2" style="stroke:#181818;stroke-width:0.5;" width="4" x="224.3485" y="551.1666"/><rect fill="#F1F1F1" height="2" style="stroke:#181818;stroke-width:0.5;" width="4" x="224.3485" y="555.1666"/><text fill="#000000" font-family="sans-serif" font-size="14" lengthAdjust="spacing" textLength="120.6885" x="100.66" y="577.7017">System Controller</text><text fill="#000000" font-family="sans-serif" font-size="14" lengthAdjust="spacing" textLength="96.373" x="100.66" y="594.19">&lt;1s Response</text></g><g class="entity" data-qualified-name="GMN13" data-source-line="26" id="ent0014"><path d="M326.65,98.4966 L326.65,122.4666 L292.43,126.4666 L326.65,130.4666 L326.65,154.4282 A0,0 0 0 0 326.65,154.4282 L489.3551,154.4282 A0,0 0 0 0 489.3551,154.4282 L489.3551,108.4966 L479.3551,98.4966 L326.65,98.4966 A0,0 0 0 0 326.65,98.4966" fill="#FEFFDD" style="stroke:#181818;stroke-width:0.5;"/><path d="M479.3551,98.4966 L479.3551,108.4966 L489.3551,108.4966 L479.3551,98.4966" fill="#FEFFDD" style="stroke:#181818;stroke-width:0.5;"/><text fill="#000000" font-family="sans-serif" font-size="13" lengthAdjust="spacing" textLength="138.2964" x="332.65" y="116.0649">ADC to &#176;C Conversion</text><text fill="#000000" font-family="sans-serif" font-size="13" lengthAdjust="spacing" textLength="141.7051" x="332.65" y="131.3755">Range: -40 to +125&#176;C</text><text fill="#000000" font-family="sans-serif" font-size="13" lengthAdjust="spacing" textLength="97.6016" x="332.65" y="146.686">REQ_FUNC_001</text></g><g class="entity" data-qualified-name="GMN16" data-source-line="32" id="ent0017"><path d="M399.45,238.4766 L399.45,262.4366 L293.46,266.4366 L399.45,270.4366 L399.45,294.4082 A0,0 0 0 0 399.45,294.4082 L586.5491,294.4082 A0,0 0 0 0 586.5491,294.4082 L586.5491,248.4766 L576.5491,238.4766 L399.45,238.4766 A0,0 0 0 0 399.45,238.4766" fill="#FEFFDD" style="stroke:#181818;stroke-width:0.5;"/><path d="M576.5491,238.4766 L576.5491,248.4766 L586.5491,248.4766 L576.5491,238.4766" fill="#FEFFDD" style="stroke:#181818;stroke-width:0.5;"/><text fill="#000000" font-family="sans-serif" font-size="13" lengthAdjust="spacing" textLength="166.0991" x="405.45" y="256.0449">5-Sample Moving Average</text><text fill="#000000" font-family="sans-serif" font-size="13" lengthAdjust="spacing" textLength="145.3613" x="405.45" y="271.3555">Noise Rejection (&#8805;90%)</text><text fill="#000000" font-family="sans-serif" font-size="13" lengthAdjust="spacing" textLength="163.376" x="405.45" y="286.666">REQ_FUNC_002, 003, 004</text></g><g class="entity" data-qualified-name="GMN19" data-source-line="38" id="ent0020"><path d="M399.4,374.9266 L399.4,406.5466 L283.49,410.5466 L399.4,414.5466 L399.4,446.1687 A0,0 0 0 0 399.4,446.1687 L576.5968,446.1687 A0,0 0 0 0 576.5968,446.1687 L576.5968,384.9266 L566.5968,374.9266 L399.4,374.9266 A0,0 0 0 0 399.4,374.9266" fill="#FEFFDD" style="stroke:#181818;stroke-width:0.5;"/><path d="M566.5968,374.9266 L566.5968,384.9266 L576.5968,384.9266 L566.5968,374.9266" fill="#FEFFDD" style="stroke:#181818;stroke-width:0.5;"/><text fill="#000000" font-family="sans-serif" font-size="13" lengthAdjust="spacing" textLength="156.1968" x="405.4" y="392.4949">Hysteresis State Machine</text><text fill="#000000" font-family="sans-serif" font-size="13" lengthAdjust="spacing" textLength="102.3433" x="405.4" y="407.8055">UNSAFE &#8805;100&#176;C</text><text fill="#000000" font-family="sans-serif" font-size="13" lengthAdjust="spacing" textLength="75.5117" x="405.4" y="423.116">SAFE &#8804;95&#176;C</text><text fill="#000000" font-family="sans-serif" font-size="13" lengthAdjust="spacing" textLength="142.2192" x="405.4" y="438.4266">REQ_SAFETY_002, 003</text></g><g class="entity" data-qualified-name="GMN22" data-source-line="45" id="ent0023"><path d="M471.13,532.3866 L471.13,618.9393 L650.8658,618.9393 L650.8658,542.3866 L640.8658,532.3866 L471.13,532.3866" fill="#FEFFDD" style="stroke:#181818;stroke-width:0.5;"/><path d="M640.8658,532.3866 L640.8658,542.3866 L650.8658,542.3866 L640.8658,532.3866" fill="#FEFFDD" style="stroke:#181818;stroke-width:1;"/><text fill="#000000" font-family="sans-serif" font-size="13" lengthAdjust="spacing" textLength="158.7358" x="477.13" y="549.9549">Integrator Responsibility:</text><text fill="#000000" font-family="sans-serif" font-size="13" lengthAdjust="spacing" textLength="99.8042" x="477.13" y="565.2655">Shutdown Logic</text><text fill="#000000" font-family="sans-serif" font-size="13" lengthAdjust="spacing" textLength="91.7744" x="477.13" y="580.576">Error Handling</text><text fill="#000000" font-family="sans-serif" font-size="13" lengthAdjust="spacing" textLength="148.8398" x="477.13" y="595.8866">Domain-Specific Action</text><text fill="#000000" font-family="sans-serif" font-size="13" lengthAdjust="spacing" textLength="116.6382" x="477.13" y="611.1971">ARCH_SEOOC_002</text></g><!--link SensorHW to SensorDriver--><g class="link" data-entity-1="ent0007" data-entity-2="ent0003" data-link-type="dependency" data-source-line="20" id="lnk9"><path d="M357.88,543.9766 C354.98,483.5466 344.9,345.4166 311,234.9466 C304.18,212.7166 302.45,206.1766 288,187.9466 C279.44,177.1566 273.291,170.8216 262.621,162.0316" fill="none" id="SensorHW-to-SensorDriver" style="stroke:#181818;stroke-width:1;"/><polygon fill="#181818" points="257.99,158.2166,262.3931,167.0264,261.8491,161.3957,267.4798,160.8518,257.99,158.2166" style="stroke:#181818;stroke-width:1;"/><text fill="#000000" font-family="sans-serif" font-size="13" lengthAdjust="spacing" textLength="140.2832" x="337.44" y="341.4949">Analog Signal (100Hz)</text></g><!--link SensorDriver to TempFilter--><g class="link" data-entity-1="ent0003" data-entity-2="ent0004" data-link-type="dependency" data-source-line="21" id="lnk10"><path d="M213.1,158.4266 C212.44,181.1466 211.7244,205.8791 211.0644,228.5791" fill="none" id="SensorDriver-to-TempFilter" style="stroke:#181818;stroke-width:1;"/><polygon fill="#181818" points="210.89,234.5766,215.1499,225.6966,211.0353,229.5787,207.1533,225.4641,210.89,234.5766" style="stroke:#181818;stroke-width:1;"/><text fill="#000000" font-family="sans-serif" font-size="13" lengthAdjust="spacing" textLength="66.5615" x="213.24" y="201.5149">ADC Value</text></g><!--link TempFilter to StateMachine--><g class="link" data-entity-1="ent0004" data-entity-2="ent0005" data-link-type="dependency" data-source-line="22" id="lnk11"><path d="M208.92,298.2766 C208.08,322.1166 207.1315,348.9603 206.2915,372.7803" fill="none" id="TempFilter-to-StateMachine" style="stroke:#181818;stroke-width:1;"/><polygon fill="#181818" points="206.08,378.7766,210.3947,369.9231,206.2562,373.7797,202.3997,369.6412,206.08,378.7766" style="stroke:#181818;stroke-width:1;"/><text fill="#000000" font-family="sans-serif" font-size="13" lengthAdjust="spacing" textLength="87.2295" x="208.8" y="341.4949">Filtered Temp</text></g><!--link StateMachine to SystemCtrl--><g class="link" data-entity-1="ent0005" data-entity-2="ent0008" data-link-type="dependency" data-source-line="23" id="lnk12"><path d="M197.66,442.2266 C190.71,471.2966 181.7252,508.891 174.7652,538.001" fill="none" id="StateMachine-to-SystemCtrl" style="stroke:#181818;stroke-width:1;"/><polygon fill="#181818" points="173.37,543.8366,179.3532,536.0134,174.5327,538.9736,171.5725,534.1531,173.37,543.8366" style="stroke:#181818;stroke-width:1;"/><text fill="#000000" font-family="sans-serif" font-size="13" lengthAdjust="spacing" textLength="111.1855" x="189.99" y="489.7349">Safe/Unsafe State</text></g><!--link GMN22 to SystemCtrl--><g class="link" data-entity-1="ent0023" data-entity-2="ent0008" data-link-type="association" data-source-line="45" id="lnk24"><path d="M515.76,531.9266 C493.24,513.1666 464.46,493.3466 434.5,483.6066 C369.84,462.5666 345.69,461.1566 281.5,483.6066 C247.37,495.5366 215.8,522.2566 194.32,543.8466" fill="none" id="GMN22-SystemCtrl" style="stroke:#181818;stroke-width:1;stroke-dasharray:7,7;"/></g><?plantuml-src TLHjRjD04Fs_fnY2a191H1BQ7uqGad5jfLBZG9po8LMgjlR6MRhUjNRNhGBY0Dm3_iCLUXHEmgpj9dPG4ocEtyoRj_Dcx2SfMtF9m5_CtosY85fT-OlpnHAU1kFmE0p9aoP-5gs2PUZvmKCy3CCJ_sWN3pvXFFBEzs7VV-iJOcwuBAYcELpJv2RJgfIfhuJIcEAvBo6MMy5W5P_DmLTveIIJ5ZoTRBXbYIqrkvJzKvLJBeTU9fMnF86OhfdTGY1OZja3GWgiJZC6lTM6wPmAY9aqg78cBTDhcZ2OgxH4dRuJ6lJW6m7y93l1ElzKyrkcWHheDGLgv59wItzs5Lv4_jLeDEuTa5SiBq8kR4DrjqnJTtQeuIv_SiYFBRLiJh5bjB8ITm0qI9VygaU-j_fr3MQenPM4VXmevODdJ9aN3Z6FDZhxs6voHdLwHvtJztyczx-nH9AKcYRR_mwwDPRbljMYfbUtE3PfjHB2zVbwR6393EORLfrqfpSSlkcwF0LFKg4oY7c6Vw0_7ercNmUaa-HOBNkHS-h31ofAHbfmLRjjuhGndgKLctI2LVQ-ascrJYylfC5BNOOGgN00ccSR2shTEJTQuivW5JYdi7V439gD-9BAZ4rXU3HouUVZoJ6cE3nulziTmcGAhlgXnhuTP1mFOveNmgtjBPSPU2Y2yyP8fBXXQF4NV3YgeV_zyUjaz6pGbPcy05mLztFqg63R4sJFd2EQ6MwWituOkeXYBmm0bN14TKiDyFEarQB3LfztweV2WgrhtPtro7lONzp2PctuDHVSRgTEP5FQLDr9E5SPJn08jAxMLQO2NK6WUJ741Klu6byCNcMA6v5xPE9WiQZSs1_b7m00?></g></svg>