<?plantuml 1.2026.1?><svg xmlns="http://www.w3.org/2000/svg" xmlns:xlink="http://www.w3.org/1999/xlink" contentStyleType="text/css" data-diagram-type="DESCRIPTION" height="629px" preserveAspectRatio="none" style="width:698px;height:629px;background:#FAFAFA;" version="1.1" viewBox="0 0 698 629" width="698px" zoomAndPan="magnify"><title>TSIM Component Architecture
(Domain-Agnostic Safety Element)</title><defs/><g><rect fill="#FAFAFA" height="629" style="stroke:none;stroke-width:1;" width="698" x="0" y="0"/><g class="title" data-source-line="7"><text fill="#000000" font-family="sans-serif" font-size="14" font-weight="bold" lengthAdjust="spacing" textLength="237.1113" x="223.7695" y="22.9951">TSIM Component Architecture</text><text fill="#000000" font-family="sans-serif" font-size="14" font-weight="bold" lengthAdjust="spacing" textLength="272.4941" x="206.0781" y="39.292">(Domain-Agnostic Safety Element)</text></g><!--cluster Thermal Sensor Interface Module (TSIM)--><g class="cluster" data-qualified-name="Thermal Sensor Interface Module .TSIM." data-source-line="9" id="ent0002"><path d="M8.5,59.5938 L329.1484,59.5938 A3.75,3.75 0 0 1 331.6484,62.0938 L338.6484,81.8906 L338.5,81.8906 A2.5,2.5 0 0 1 341,84.3906 L341,455.0938 A2.5,2.5 0 0 1 338.5,457.5938 L8.5,457.5938 A2.5,2.5 0 0 1 6,455.0938 L6,62.0938 A2.5,2.5 0 0 1 8.5,59.5938" fill="none" style="stroke:#000000;stroke-width:1.5;"/><line style="stroke:#000000;stroke-width:1.5;" x1="6" x2="338.6484" y1="81.8906" y2="81.8906"/><text fill="#000000" font-family="sans-serif" font-size="14" font-weight="bold" lengthAdjust="spacing" textLength="319.6484" x="10" y="74.5889">Thermal Sensor Interface Module (TSIM)</text></g><!--cluster Integration (SEooC Assumptions)--><g class="cluster" data-qualified-name="Integration .SEooC Assumptions." data-source-line="15" id="ent0006"><path d="M95.5,508.5938 L358.501,508.5938 A3.75,3.75 0 0 1 361.001,511.0938 L368.001,530.8906 L485.5,530.8906 A2.5,2.5 0 0 1 488,533.3906 L488,620.0938 A2.5,2.5 0 0 1 485.5,622.5938 L95.5,622.5938 A2.5,2.5 0 0 1 93,620.0938 L93,511.0938 A2.5,2.5 0 0 1 95.5,508.5938" fill="none" style="stroke:#000000;stroke-width:1.5;"/><line style="stroke:#000000;stroke-width:1.5;" x1="93" x2="368.001" y1="530.8906" y2="530.8906"/><text fill="#000000" font-family="sans-serif" font-size="14" font-weight="bold" lengthAdjust="spacing" textLength="262.001" x="97" y="523.5889">Integration (SEooC Assumptions)</text></g><!--entity SensorDriver--><g class="entity" data-qualified-name="Thermal Sensor Interface Module .TSIM..SensorDriver" data-source-line="10" id="ent0003"><rect fill="#F1F1F1" height="62.5938" rx="2.5" ry="2.5" style="stroke:#181818;stroke-width:0.5;" width="158.877" x="164.5" y="94.5938"/><rect fill="#F1F1F1" height="10" style="stroke:#181818;stroke-width:0.5;" width="15" x="303.377" y="99.5938"/><rect fill="#F1F1F1" height="2" style="stroke:#181818;stroke-width:0.5;" width="4" x="301.377" y="101.5938"/><rect fill="#F1F1F1" height="2" style="stroke:#181818;stroke-width:0.5;" width="4" x="301.377" y="105.5938"/><text fill="#000000" font-family="sans-serif" font-size="14" lengthAdjust="spacing" textLength="95.5186" x="179.5" y="127.5889">Sensor Driver</text><text fill="#000000" font-family="sans-serif" font-size="14" lengthAdjust="spacing" textLength="118.877" x="179.5" y="143.8857">ARCH_FUNC_001</text></g><!--entity TempFilter--><g class="entity" data-qualified-name="Thermal Sensor Interface Module .TSIM..TempFilter" data-source-line="11" id="ent0004"><rect fill="#F1F1F1" height="62.5938" rx="2.5" ry="2.5" style="stroke:#181818;stroke-width:0.5;" width="171.5098" x="152" y="234.5938"/><rect fill="#F1F1F1" height="10" style="stroke:#181818;stroke-width:0.5;" width="15" x="303.5098" y="239.5938"/><rect fill="#F1F1F1" height="2" style="stroke:#181818;stroke-width:0.5;" width="4" x="301.5098" y="241.5938"/><rect fill="#F1F1F1" height="2" style="stroke:#181818;stroke-width:0.5;" width="4" x="301.5098" y="245.5938"/><text fill="#000000" font-family="sans-serif" font-size="14" lengthAdjust="spacing" textLength="131.5098" x="167" y="267.5889">Temperature Filter</text><text fill="#000000" font-family="sans-serif" font-size="14" lengthAdjust="spacing" textLength="118.877" x="167" y="283.8857">ARCH_FUNC_002</text></g><!--entity StateMachine--><g class="entity" data-qualified-name="Thermal Sensor Interface Module .TSIM..StateMachine" data-source-line="12" id="ent0005"><rect fill="#F1F1F1" height="62.5938" rx="2.5" ry="2.5" style="stroke:#181818;stroke-width:0.5;" width="158.877" x="152.5" y="378.5938"/><rect fill="#F1F1F1" height="10" style="stroke:#181818;stroke-width:0.5;" width="15" x="291.377" y="383.5938"/><rect fill="#F1F1F1" height="2" style="stroke:#181818;stroke-width:0.5;" width="4" x="289.377" y="385.5938"/><rect fill="#F1F1F1" height="2" style="stroke:#181818;stroke-width:0.5;" width="4" x="289.377" y="389.5938"/><text fill="#000000" font-family="sans-serif" font-size="14" lengthAdjust="spacing" textLength="100.1123" x="167.5" y="411.5889">State Machine</text><text fill="#000000" font-family="sans-serif" font-size="14" lengthAdjust="spacing" textLength="118.877" x="167.5" y="427.8857">ARCH_FUNC_003</text></g><!--entity SensorHW--><g class="entity" data-qualified-name="Integration .SEooC Assumptions..SensorHW" data-source-line="16" id="ent0007"><rect fill="#F1F1F1" height="62.5938" rx="2.5" ry="2.5" style="stroke:#181818;stroke-width:0.5;" width="160.5859" x="310.5" y="543.5938"/><rect fill="#F1F1F1" height="10" style="stroke:#181818;stroke-width:0.5;" width="15" x="451.0859" y="548.5938"/><rect fill="#F1F1F1" height="2" style="stroke:#181818;stroke-width:0.5;" width="4" x="449.0859" y="550.5938"/><rect fill="#F1F1F1" height="2" style="stroke:#181818;stroke-width:0.5;" width="4" x="449.0859" y="554.5938"/><text fill="#000000" font-family="sans-serif" font-size="14" lengthAdjust="spacing" textLength="120.5859" x="325.5" y="576.5889">Sensor Hardware</text><text fill="#000000" font-family="sans-serif" font-size="14" lengthAdjust="spacing" textLength="106.0254" x="325.5" y="592.8857">&#177;2&#176;C Accuracy</text></g><!--entity SystemCtrl--><g class="entity" data-qualified-name="Integration .SEooC Assumptions..SystemCtrl" data-source-line="17" id="ent0008"><rect fill="#F1F1F1" height="62.5938" rx="2.5" ry="2.5" style="stroke:#181818;stroke-width:0.5;" width="165.8291" x="109" y="543.5938"/><rect fill="#F1F1F1" height="10" style="stroke:#181818;stroke-width:0.5;" width="15" x="254.8291" y="548.5938"/><rect fill="#F1F1F1" height="2" style="stroke:#181818;stroke-width:0.5;" width="4" x="252.8291" y="550.5938"/><rect fill="#F1F1F1" height="2" style="stroke:#181818;stroke-width:0.5;" width="4" x="252.8291" y="554.5938"/><text fill="#000000" font-family="sans-serif" font-size="14" lengthAdjust="spacing" textLength="125.8291" x="124" y="576.5889">System Controller</text><text fill="#000000" font-family="sans-serif" font-size="14" lengthAdjust="spacing" textLength="100.249" x="124" y="592.8857">&lt;1s Response</text></g><g class="entity" data-qualified-name="GMN13" data-source-line="26" id="ent0014"><path d="M358.5,98.5938 L358.5,122.0938 L323.65,126.0938 L358.5,130.0938 L358.5,153.9922 A0,0 0 0 0 358.5,153.9922 L523.3315,153.9922 A0,0 0 0 0 523.3315,153.9922 L523.3315,108.5938 L513.3315,98.5938 L358.5,98.5938 A0,0 0 0 0 358.5,98.5938" fill="#FEFFDD" style="stroke:#181818;stroke-width:0.5;"/><path d="M513.3315,98.5938 L513.3315,108.5938 L523.3315,108.5938 L513.3315,98.5938" fill="#FEFFDD" style="stroke:#181818;stroke-width:0.5;"/><text fill="#000000" font-family="sans-serif" font-size="13" lengthAdjust="spacing" textLength="141.8892" x="364.5" y="115.6606">ADC to &#176;C Conversion</text><text fill="#000000" font-family="sans-serif" font-size="13" lengthAdjust="spacing" textLength="143.8315" x="364.5" y="130.7935">Range: -40 to +125&#176;C</text><text fill="#000000" font-family="sans-serif" font-size="13" lengthAdjust="spacing" textLength="101.0864" x="364.5" y="145.9263">REQ_FUNC_001</text></g><g class="entity" data-qualified-name="GMN16" data-source-line="32" id="ent0017"><path d="M430,238.5938 L430,262.0938 L324.06,266.0938 L430,270.0938 L430,293.9922 A0,0 0 0 0 430,293.9922 L622.082,293.9922 A0,0 0 0 0 622.082,293.9922 L622.082,248.5938 L612.082,238.5938 L430,238.5938 A0,0 0 0 0 430,238.5938" fill="#FEFFDD" style="stroke:#181818;stroke-width:0.5;"/><path d="M612.082,238.5938 L612.082,248.5938 L622.082,248.5938 L612.082,238.5938" fill="#FEFFDD" style="stroke:#181818;stroke-width:0.5;"/><text fill="#000000" font-family="sans-serif" font-size="13" lengthAdjust="spacing" textLength="171.082" x="436" y="255.6606">5-Sample Moving Average</text><text fill="#000000" font-family="sans-serif" font-size="13" lengthAdjust="spacing" textLength="154.9463" x="436" y="270.7935">Noise Rejection (&#8805;90%)</text><text fill="#000000" font-family="sans-serif" font-size="13" lengthAdjust="spacing" textLength="167.2417" x="436" y="285.9263">REQ_FUNC_002, 003, 004</text></g><g class="entity" data-qualified-name="GMN19" data-source-line="38" id="ent0020"><path d="M430,374.5938 L430,406.0938 L311.57,410.0938 L430,414.0938 L430,445.125 A0,0 0 0 0 430,445.125 L615.9312,445.125 A0,0 0 0 0 615.9312,445.125 L615.9312,384.5938 L605.9312,374.5938 L430,374.5938 A0,0 0 0 0 430,374.5938" fill="#FEFFDD" style="stroke:#181818;stroke-width:0.5;"/><path d="M605.9312,374.5938 L605.9312,384.5938 L615.9312,384.5938 L605.9312,374.5938" fill="#FEFFDD" style="stroke:#181818;stroke-width:0.5;"/><text fill="#000000" font-family="sans-serif" font-size="13" lengthAdjust="spacing" textLength="164.9312" x="436" y="391.6606">Hysteresis State Machine</text><text fill="#000000" font-family="sans-serif" font-size="13" lengthAdjust="spacing" textLength="107.4912" x="436" y="406.7935">UNSAFE &#8805;100&#176;C</text><text fill="#000000" font-family="sans-serif" font-size="13" lengthAdjust="spacing" textLength="79.9805" x="436" y="421.9263">SAFE &#8804;95&#176;C</text><text fill="#000000" font-family="sans-serif" font-size="13" lengthAdjust="spacing" textLength="147.0879" x="436" y="437.0591">REQ_SAFETY_002, 003</text></g><g class="entity" data-qualified-name="GMN22" data-source-line="45" id="ent0023"><path d="M506.5,532.0938 L506.5,617.7578 L691.6504,617.7578 L691.6504,542.0938 L681.6504,532.0938 L506.5,532.0938" fill="#FEFFDD" style="stroke:#181818;stroke-width:0.5;"/><path d="M681.6504,532.0938 L681.6504,542.0938 L691.6504,542.0938 L681.6504,532.0938" fill="#FEFFDD" style="stroke:#181818;stroke-width:1;"/><text fill="#000000" font-family="sans-serif" font-size="13" lengthAdjust="spacing" textLength="164.1504" x="512.5" y="549.1606">Integrator Responsibility:</text><text fill="#000000" font-family="sans-serif" font-size="13" lengthAdjust="spacing" textLength="103.2446" x="512.5" y="564.2935">Shutdown Logic</text><text fill="#000000" font-family="sans-serif" font-size="13" lengthAdjust="spacing" textLength="94.2817" x="512.5" y="579.4263">Error Handling</text><text fill="#000000" font-family="sans-serif" font-size="13" lengthAdjust="spacing" textLength="150.8076" x="512.5" y="594.5591">Domain-Specific Action</text><text fill="#000000" font-family="sans-serif" font-size="13" lengthAdjust="spacing" textLength="120.5991" x="512.5" y="609.6919">ARCH_SEOOC_002</text></g><!--link SensorHW to SensorDriver--><g class="link" data-entity-1="ent0007" data-entity-2="ent0003" data-link-type="dependency" data-source-line="20" id="lnk9"><path d="M389.76,543.4237 C386.64,483.0338 376.06,344.9938 342,234.5938 C335.14,212.3737 333.51,205.7738 319,187.5938 C310.34,176.7437 304.0669,170.347 293.2469,161.557" fill="none" id="SensorHW-to-SensorDriver" style="stroke:#181818;stroke-width:1;"/><polygon fill="#181818" points="288.59,157.7738,293.0533,166.5532,292.4708,160.9264,298.0976,160.344,288.59,157.7738" style="stroke:#181818;stroke-width:1;"/><text fill="#000000" font-family="sans-serif" font-size="13" lengthAdjust="spacing" textLength="144.6694" x="368" y="340.6606">Analog Signal (100Hz)</text></g><!--link SensorDriver to TempFilter--><g class="link" data-entity-1="ent0003" data-entity-2="ent0004" data-link-type="dependency" data-source-line="21" id="lnk10"><path d="M242.67,157.7238 C241.67,180.5938 240.5797,205.7094 239.5897,228.5594" fill="none" id="SensorDriver-to-TempFilter" style="stroke:#181818;stroke-width:1;"/><polygon fill="#181818" points="239.33,234.5537,243.7158,225.7353,239.5464,229.5584,235.7233,225.389,239.33,234.5537" style="stroke:#181818;stroke-width:1;"/><text fill="#000000" font-family="sans-serif" font-size="13" lengthAdjust="spacing" textLength="68.8213" x="242" y="200.6606">ADC Value</text></g><!--link TempFilter to StateMachine--><g class="link" data-entity-1="ent0004" data-entity-2="ent0005" data-link-type="dependency" data-source-line="22" id="lnk11"><path d="M236.7,297.9038 C235.69,321.7238 234.5644,348.5491 233.5544,372.3491" fill="none" id="TempFilter-to-StateMachine" style="stroke:#181818;stroke-width:1;"/><polygon fill="#181818" points="233.3,378.3438,237.678,369.5214,233.512,373.3482,229.6852,369.1822,233.3,378.3438" style="stroke:#181818;stroke-width:1;"/><text fill="#000000" font-family="sans-serif" font-size="13" lengthAdjust="spacing" textLength="90.3779" x="237" y="340.6606">Filtered Temp</text></g><!--link StateMachine to SystemCtrl--><g class="link" data-entity-1="ent0005" data-entity-2="ent0008" data-link-type="dependency" data-source-line="23" id="lnk12"><path d="M224.48,441.7537 C217.32,470.8938 208.0598,508.6466 200.9198,537.7466" fill="none" id="StateMachine-to-SystemCtrl" style="stroke:#181818;stroke-width:1;"/><polygon fill="#181818" points="199.49,543.5738,205.5194,535.7862,200.6815,538.7178,197.7499,533.8798,199.49,543.5738" style="stroke:#181818;stroke-width:1;"/><text fill="#000000" font-family="sans-serif" font-size="13" lengthAdjust="spacing" textLength="116.7842" x="217" y="488.6606">Safe/Unsafe State</text></g><!--link GMN22 to SystemCtrl--><g class="link" data-entity-1="ent0023" data-entity-2="ent0008" data-link-type="association" data-source-line="45" id="lnk24"><path d="M553.52,531.8538 C530.53,512.9638 501.06,492.9038 470.5,483.0938 C402.79,461.3538 377.77,460.0438 310.5,483.0938 C275.76,494.9938 243.34,521.6938 221.22,543.2838" fill="none" id="GMN22-SystemCtrl" style="stroke:#181818;stroke-width:1;stroke-dasharray:7,7;"/></g><?plantuml-src TLHjRjD04Fs_fnY2a191H1BQ7uqGad5jfLBZG9po8LMgjlR6MRhUjNRNhGBY0Dm3_iCLUXHEmgpj9dPG4ocEtyoRj_Dcx2SfMtF9m5_CtosY85fT-OlpnHAU1kFmE0p9aoP-5gs2PUZvmKCy3CCJ_sWN3pvXFFBEzs7VV-iJOcwuBAYcELpJv2RJgfIfhuJIcEAvBo6MMy5W5P_DmLTveIIJ5ZoTRBXbYIqrkvJzKvLJBeTU9fMnF86OhfdTGY1OZja3GWgiJZC6lTM6wPmAY9aqg78cBTDhcZ2OgxH4dRuJ6lJW6m7y93l1ElzKyrkcWHheDGLgv59wItzs5Lv4_jLeDEuTa5SiBq8kR4DrjqnJTtQeuIv_SiYFBRLiJh5bjB8ITm0qI9VygaU-j_fr3MQenPM4VXmevODdJ9aN3Z6FDZhxs6voHdLwHvtJztyczx-nH9AKcYRR_mwwDPRbljMYfbUtE3PfjHB2zVbwR6393EORLfrqfpSSlkcwF0LFKg4oY7c6Vw0_7ercNmUaa-HOBNkHS-h31ofAHbfmLRjjuhGndgKLctI2LVQ-ascrJYylfC5BNOOGgN00ccSR2shTEJTQuivW5JYdi7V439gD-9BAZ4rXU3HouUVZoJ6cE3nulziTmcGAhlgXnhuTP1mFOveNmgtjBPSPU2Y2yyP8fBXXQF4NV3YgeV_zyUjaz6pGbPcy05mLztFqg63R4sJFd2EQ6MwWituOkeXYBmm0bN14TKiDyFEarQB3LfztweV2WgrhtPtro7lONzp2PctuDHVSRgTEP5FQLDr9E5SPJn08jAxMLQO2NK6WUJ741Klu6byCNcMA6v5xPE9WiQZSs1_b7m00?></g></svg>