<?plantuml 1.2026.1?><svg xmlns="http://www.w3.org/2000/svg" xmlns:xlink="http://www.w3.org/1999/xlink" contentStyleType="text/css" data-diagram-type="DESCRIPTION" height="846px" preserveAspectRatio="none" style="width:1441px;height:846px;background:#FAFAFA;" version="1.1" viewBox="0 0 1441 846" width="1441px" zoomAndPan="magnify"><title>TSIM Traceability Matrix
Requirements &gt; Architecture &gt; Verification</title><defs/><g><rect fill="#FAFAFA" height="846" style="stroke:none;stroke-width:1;" width="1441" x="0" y="0"/><g class="title" data-source-line="4"><text fill="#000000" font-family="sans-serif" font-size="14" font-weight="bold" lengthAdjust="spacing" textLength="174.9453" x="626.074" y="23.5352">TSIM Traceability Matrix</text><text fill="#000000" font-family="sans-serif" font-size="14" font-weight="bold" lengthAdjust="spacing" textLength="312.6826" x="557.2054" y="40.0234">Requirements &gt; Architecture &gt; Verification</text></g><!--cluster Safety Goals--><g class="cluster" data-qualified-name="Safety Goals" data-source-line="6" id="ent0002"><rect fill="#FFE0B2" height="100.72" rx="2.5" ry="2.5" style="stroke:#181818;stroke-width:1;" width="184" x="629" y="60.9766"/><text fill="#000000" font-family="sans-serif" font-size="14" font-weight="bold" lengthAdjust="spacing" textLength="88.7646" x="676.6177" y="76.5117">Safety Goals</text></g><!--cluster Safety Requirements--><g class="cluster" data-qualified-name="Safety Requirements" data-source-line="10" id="ent0004"><rect fill="#FFCCCC" height="103.35" rx="2.5" ry="2.5" style="stroke:#181818;stroke-width:1;" width="638" x="405" y="194.6966"/><text fill="#000000" font-family="sans-serif" font-size="14" font-weight="bold" lengthAdjust="spacing" textLength="148.7021" x="649.6489" y="210.2317">Safety Requirements</text></g><!--cluster Functional Requirements--><g class="cluster" data-qualified-name="Functional Requirements" data-source-line="16" id="ent0008"><rect fill="#E1BEE7" height="103.33" rx="2.5" ry="2.5" style="stroke:#181818;stroke-width:1;" width="795" x="247" y="331.0466"/><text fill="#000000" font-family="sans-serif" font-size="14" font-weight="bold" lengthAdjust="spacing" textLength="179.6553" x="554.6724" y="346.5817">Functional Requirements</text></g><!--cluster Architecture--><g class="cluster" data-qualified-name="Architecture" data-source-line="23" id="ent0013"><rect fill="#C8E6C9" height="101.68" rx="2.5" ry="2.5" style="stroke:#181818;stroke-width:1;" width="781" x="248" y="483.3766"/><text fill="#000000" font-family="sans-serif" font-size="14" font-weight="bold" lengthAdjust="spacing" textLength="88.6348" x="594.1826" y="498.9117">Architecture</text></g><!--cluster Verification & Test--><g class="cluster" data-qualified-name="Verification . Test" data-source-line="30" id="ent0018"><rect fill="#B3E5FC" height="102.18" rx="2.5" ry="2.5" style="stroke:#181818;stroke-width:1;" width="1422" x="7" y="634.0566"/><text fill="#000000" font-family="sans-serif" font-size="14" font-weight="bold" lengthAdjust="spacing" textLength="134.4082" x="650.7959" y="649.5917">Verification &amp; Test</text></g><!--entity SG1--><g class="entity" data-qualified-name="Safety Goals.SG1" data-source-line="7" id="ent0003"><ellipse cx="720.9969" cy="120.8357" fill="#F1F1F1" rx="76.3169" ry="24.8591" style="stroke:#181818;stroke-width:0.5;"/><text fill="#000000" font-family="sans-serif" font-size="14" lengthAdjust="spacing" textLength="76.7539" x="682.6199" y="115.1986">SG: Prevent</text><text fill="#000000" font-family="sans-serif" font-size="14" lengthAdjust="spacing" textLength="110.6055" x="665.6941" y="131.6869">thermal damage</text></g><!--entity SR1--><g class="entity" data-qualified-name="Safety Requirements.SR1" data-source-line="11" id="ent0005"><ellipse cx="504.0039" cy="255.8684" fill="#F1F1F1" rx="83.4139" ry="25.5219" style="stroke:#181818;stroke-width:0.5;"/><text fill="#000000" font-family="sans-serif" font-size="14" lengthAdjust="spacing" textLength="117.7422" x="445.1328" y="253.5149">REQ_SAFETY_001</text><text fill="#000000" font-family="sans-serif" font-size="14" lengthAdjust="spacing" textLength="100.0371" x="453.9853" y="270.0032">Goal definition</text></g><!--entity SR2--><g class="entity" data-qualified-name="Safety Requirements.SR2" data-source-line="12" id="ent0006"><ellipse cx="720.9982" cy="255.8638" fill="#F1F1F1" rx="98.9182" ry="25.4573" style="stroke:#181818;stroke-width:0.5;"/><text fill="#000000" font-family="sans-serif" font-size="14" lengthAdjust="spacing" textLength="117.7422" x="662.1271" y="251.1223">REQ_SAFETY_002</text><text fill="#000000" font-family="sans-serif" font-size="14" lengthAdjust="spacing" textLength="140.8477" x="650.5743" y="267.6106">Detect within 100ms</text></g><!--entity SR3--><g class="entity" data-qualified-name="Safety Requirements.SR3" data-source-line="13" id="ent0007"><ellipse cx="941.0018" cy="255.8632" fill="#F1F1F1" rx="85.7518" ry="26.1766" style="stroke:#181818;stroke-width:0.5;"/><text fill="#000000" font-family="sans-serif" font-size="14" lengthAdjust="spacing" textLength="117.7422" x="882.1307" y="252.5637">REQ_SAFETY_003</text><text fill="#000000" font-family="sans-serif" font-size="14" lengthAdjust="spacing" textLength="114.8438" x="883.5799" y="269.0519">Report safe state</text></g><!--entity FR1--><g class="entity" data-qualified-name="Functional Requirements.FR1" data-source-line="17" id="ent0009"><ellipse cx="341.9973" cy="392.2128" fill="#F1F1F1" rx="78.8473" ry="26.1662" style="stroke:#181818;stroke-width:0.5;"/><text fill="#000000" font-family="sans-serif" font-size="14" lengthAdjust="spacing" textLength="105.1094" x="289.4426" y="388.4975">REQ_FUNC_001</text><text fill="#000000" font-family="sans-serif" font-size="14" lengthAdjust="spacing" textLength="107.9668" x="288.0139" y="404.9858">ADC conversion</text></g><!--entity FR2--><g class="entity" data-qualified-name="Functional Requirements.FR2" data-source-line="18" id="ent0010"><ellipse cx="532.0019" cy="392.2177" fill="#F1F1F1" rx="75.7719" ry="25.8311" style="stroke:#181818;stroke-width:0.5;"/><text fill="#000000" font-family="sans-serif" font-size="14" lengthAdjust="spacing" textLength="105.1094" x="479.4472" y="389.4137">REQ_FUNC_002</text><text fill="#000000" font-family="sans-serif" font-size="14" lengthAdjust="spacing" textLength="95.8262" x="484.0888" y="405.9019">Noise filtering</text></g><!--entity FR3--><g class="entity" data-qualified-name="Functional Requirements.FR3" data-source-line="19" id="ent0011"><ellipse cx="731.9963" cy="392.2185" fill="#F1F1F1" rx="88.9063" ry="25.4419" style="stroke:#181818;stroke-width:0.5;"/><text fill="#000000" font-family="sans-serif" font-size="14" lengthAdjust="spacing" textLength="105.1094" x="679.4416" y="387.4544">REQ_FUNC_003</text><text fill="#000000" font-family="sans-serif" font-size="14" lengthAdjust="spacing" textLength="126.2324" x="668.8801" y="403.9426">Threshold &#8805;100&#176;C</text></g><!--entity FR4--><g class="entity" data-qualified-name="Functional Requirements.FR4" data-source-line="20" id="ent0012"><ellipse cx="941.0031" cy="392.2158" fill="#F1F1F1" rx="84.6731" ry="25.6993" style="stroke:#181818;stroke-width:0.5;"/><text fill="#000000" font-family="sans-serif" font-size="14" lengthAdjust="spacing" textLength="105.1094" x="888.4484" y="387.8286">REQ_FUNC_004</text><text fill="#000000" font-family="sans-serif" font-size="14" lengthAdjust="spacing" textLength="118.6514" x="881.6774" y="404.3169">Hysteresis &#8804;95&#176;C</text></g><!--entity AF1--><g class="entity" data-qualified-name="Architecture.AF1" data-source-line="24" id="ent0014"><ellipse cx="345.0048" cy="543.7121" fill="#F1F1F1" rx="81.3348" ry="25.2156" style="stroke:#181818;stroke-width:0.5;"/><text fill="#000000" font-family="sans-serif" font-size="14" lengthAdjust="spacing" textLength="116.2793" x="286.8651" y="541.8119">ARCH_FUNC_001</text><text fill="#000000" font-family="sans-serif" font-size="14" lengthAdjust="spacing" textLength="90.959" x="299.5253" y="558.3002">Sensor Driver</text></g><!--entity AF2--><g class="entity" data-qualified-name="Architecture.AF2" data-source-line="25" id="ent0015"><ellipse cx="538.0033" cy="543.7149" fill="#F1F1F1" rx="76.4433" ry="23.8284" style="stroke:#181818;stroke-width:0.5;"/><text fill="#000000" font-family="sans-serif" font-size="14" lengthAdjust="spacing" textLength="116.2793" x="479.8636" y="543.977">ARCH_FUNC_002</text><text fill="#000000" font-family="sans-serif" font-size="14" lengthAdjust="spacing" textLength="34.3643" x="520.8211" y="560.4652">Filter</text></g><!--entity AF3--><g class="entity" data-qualified-name="Architecture.AF3" data-source-line="26" id="ent0016"><ellipse cx="731.0029" cy="543.7135" fill="#F1F1F1" rx="81.7629" ry="25.337" style="stroke:#181818;stroke-width:0.5;"/><text fill="#000000" font-family="sans-serif" font-size="14" lengthAdjust="spacing" textLength="116.2793" x="672.8632" y="541.6327">ARCH_FUNC_003</text><text fill="#000000" font-family="sans-serif" font-size="14" lengthAdjust="spacing" textLength="94.1582" x="683.9238" y="558.121">State Machine</text></g><!--entity AE2--><g class="entity" data-qualified-name="Architecture.AE2" data-source-line="27" id="ent0017"><ellipse cx="930.0031" cy="543.7143" fill="#F1F1F1" rx="82.7131" ry="24.1877" style="stroke:#181818;stroke-width:0.5;"/><text fill="#000000" font-family="sans-serif" font-size="14" lengthAdjust="spacing" textLength="124.0654" x="867.9704" y="543.3963">ARCH_ERROR_002</text><text fill="#000000" font-family="sans-serif" font-size="14" lengthAdjust="spacing" textLength="59.2471" x="900.3796" y="559.8846">Fail-safe</text></g><!--entity T1--><g class="entity" data-qualified-name="Verification . Test.T1" data-source-line="31" id="ent0019"><ellipse cx="132.9972" cy="694.6495" fill="#F1F1F1" rx="109.9672" ry="24.6829" style="stroke:#181818;stroke-width:0.5;"/><text fill="#000000" font-family="sans-serif" font-size="14" lengthAdjust="spacing" textLength="162.6816" x="51.6564" y="693.5564">TEST_CONVERSION_001</text><text fill="#000000" font-family="sans-serif" font-size="14" lengthAdjust="spacing" textLength="104.9385" x="80.528" y="710.0447">Range accuracy</text></g><!--entity T2--><g class="entity" data-qualified-name="Verification . Test.T2" data-source-line="32" id="ent0020"><ellipse cx="362.0041" cy="694.6478" fill="#F1F1F1" rx="83.6241" ry="25.5912" style="stroke:#181818;stroke-width:0.5;"/><text fill="#000000" font-family="sans-serif" font-size="14" lengthAdjust="spacing" textLength="117.6875" x="303.1604" y="692.1926">TEST_FILTER_001</text><text fill="#000000" font-family="sans-serif" font-size="14" lengthAdjust="spacing" textLength="101.6846" x="311.1619" y="708.6809">Noise rejection</text></g><!--entity T3--><g class="entity" data-qualified-name="Verification . Test.T3" data-source-line="33" id="ent0021"><ellipse cx="586.9964" cy="694.6479" fill="#F1F1F1" rx="106.4064" ry="24.9113" style="stroke:#181818;stroke-width:0.5;"/><text fill="#000000" font-family="sans-serif" font-size="14" lengthAdjust="spacing" textLength="155.627" x="509.183" y="693.2056">TEST_THRESHOLD_001</text><text fill="#000000" font-family="sans-serif" font-size="14" lengthAdjust="spacing" textLength="110.1338" x="531.9295" y="709.6938">100&#176;C detection</text></g><!--entity T4--><g class="entity" data-qualified-name="Verification . Test.T4" data-source-line="34" id="ent0022"><ellipse cx="831.0003" cy="694.6485" fill="#F1F1F1" rx="102.6203" ry="24.6219" style="stroke:#181818;stroke-width:0.5;"/><text fill="#000000" font-family="sans-serif" font-size="14" lengthAdjust="spacing" textLength="151.9355" x="755.0325" y="693.6495">TEST_HYSTERESIS_001</text><text fill="#000000" font-family="sans-serif" font-size="14" lengthAdjust="spacing" textLength="95.2793" x="783.3607" y="710.1378">95&#176;C recovery</text></g><!--entity T5--><g class="entity" data-qualified-name="Verification . Test.T5" data-source-line="35" id="ent0023"><ellipse cx="1079.0021" cy="694.6511" fill="#F1F1F1" rx="110.7121" ry="24.6646" style="stroke:#181818;stroke-width:0.5;"/><text fill="#000000" font-family="sans-serif" font-size="14" lengthAdjust="spacing" textLength="163.9531" x="997.0255" y="693.5863">TEST_END_TO_END_001</text><text fill="#000000" font-family="sans-serif" font-size="14" lengthAdjust="spacing" textLength="104.8838" x="1026.5602" y="710.0746">Latency &#8804;50ms</text></g><!--entity T7--><g class="entity" data-qualified-name="Verification . Test.T7" data-source-line="36" id="ent0024"><ellipse cx="1319.0034" cy="694.6446" fill="#F1F1F1" rx="94.2034" ry="24.278" style="stroke:#181818;stroke-width:0.5;"/><text fill="#000000" font-family="sans-serif" font-size="14" lengthAdjust="spacing" textLength="141.3467" x="1248.33" y="694.1833">TEST_FAIL_SAFE_001</text><text fill="#000000" font-family="sans-serif" font-size="14" lengthAdjust="spacing" textLength="72.4609" x="1282.7729" y="710.6716">10 failures</text></g><g class="entity" data-qualified-name="GMN43" data-source-line="63" id="ent0044"><path d="M1203.9,783.2366 L1203.9,839.1682 A0,0 0 0 0 1203.9,839.1682 L1434.0934,839.1682 A0,0 0 0 0 1434.0934,839.1682 L1434.0934,793.2366 L1424.0934,783.2366 L1323,783.2366 L1319,719.3766 L1315,783.2366 L1203.9,783.2366 A0,0 0 0 0 1203.9,783.2366" fill="#FEFFDD" style="stroke:#181818;stroke-width:0.5;"/><path d="M1424.0934,783.2366 L1424.0934,793.2366 L1434.0934,793.2366 L1424.0934,783.2366" fill="#FEFFDD" style="stroke:#181818;stroke-width:0.5;"/><text fill="#000000" font-family="sans-serif" font-size="13" lengthAdjust="spacing" textLength="168.4033" x="1209.9" y="800.8049">Complete traceability from</text><text fill="#000000" font-family="sans-serif" font-size="13" lengthAdjust="spacing" textLength="209.1934" x="1209.9" y="816.1155">safety goals through architecture</text><text fill="#000000" font-family="sans-serif" font-size="13" lengthAdjust="spacing" textLength="114.7656" x="1209.9" y="831.426">to test verification</text></g><!--link SG1 to SR1--><g class="link" data-entity-1="ent0003" data-entity-2="ent0005" data-link-type="dependency" data-source-line="39" id="lnk25"><path d="M681.86,142.6566 C659.15,154.9966 630.15,171.2066 605,186.6966 C581.58,201.1066 560.8307,215.0478 541.2307,228.6378" fill="none" id="SG1-to-SR1" style="stroke:#181818;stroke-width:1;"/><polygon fill="#181818" points="536.3,232.0566,545.9753,230.2155,540.4089,229.2076,541.4169,223.6412,536.3,232.0566" style="stroke:#181818;stroke-width:1;"/></g><!--link SG1 to SR2--><g class="link" data-entity-1="ent0003" data-entity-2="ent0006" data-link-type="dependency" data-source-line="40" id="lnk26"><path d="M721,145.9266 C721,169.7366 721,199.9966 721,224.0566" fill="none" id="SG1-to-SR2" style="stroke:#181818;stroke-width:1;"/><polygon fill="#181818" points="721,230.0566,725,221.0566,721,225.0566,717,221.0566,721,230.0566" style="stroke:#181818;stroke-width:1;"/></g><!--link SG1 to SR3--><g class="link" data-entity-1="ent0003" data-entity-2="ent0007" data-link-type="dependency" data-source-line="41" id="lnk27"><path d="M759.79,142.6366 C782.52,155.0366 811.65,171.3166 837,186.6966 C860.63,201.0166 881.6453,214.7269 901.7353,228.1869" fill="none" id="SG1-to-SR3" style="stroke:#181818;stroke-width:1;"/><polygon fill="#181818" points="906.72,231.5266,901.4694,223.194,902.5661,228.7435,897.0166,229.8402,906.72,231.5266" style="stroke:#181818;stroke-width:1;"/></g><!--link SR2 to FR1--><g class="link" data-entity-1="ent0006" data-entity-2="ent0009" data-link-type="dependency" data-source-line="43" id="lnk28"><path d="M677.19,279.1166 C655.92,288.9466 629.68,299.7066 605,306.0466 C533.17,324.5066 508.48,297.1066 439,323.0466 C412.58,332.9066 391.2638,347.8888 372.8738,363.2588" fill="none" id="SR2-to-FR1" style="stroke:#181818;stroke-width:1;"/><polygon fill="#181818" points="368.27,367.1066,377.7408,364.4041,372.1065,363.9001,372.6105,358.2657,368.27,367.1066" style="stroke:#181818;stroke-width:1;"/></g><!--link SR2 to FR2--><g class="link" data-entity-1="ent0006" data-entity-2="ent0010" data-link-type="dependency" data-source-line="44" id="lnk29"><path d="M687.48,279.9866 C669.24,292.6266 646.32,308.6066 626,323.0466 C604.97,337.9966 586.318,351.5015 568.078,364.8015" fill="none" id="SR2-to-FR2" style="stroke:#181818;stroke-width:1;"/><polygon fill="#181818" points="563.23,368.3366,572.8588,366.266,567.27,365.3907,568.1454,359.802,563.23,368.3366" style="stroke:#181818;stroke-width:1;"/></g><!--link SR2 to FR3--><g class="link" data-entity-1="ent0006" data-entity-2="ent0011" data-link-type="dependency" data-source-line="45" id="lnk30"><path d="M723.02,281.5066 C725,305.7466 727.5179,336.5668 729.5079,360.7468" fill="none" id="SR2-to-FR3" style="stroke:#181818;stroke-width:1;"/><polygon fill="#181818" points="730,366.7266,733.2483,357.4288,729.5899,361.7434,725.2753,358.085,730,366.7266" style="stroke:#181818;stroke-width:1;"/></g><!--link SR3 to FR4--><g class="link" data-entity-1="ent0007" data-entity-2="ent0012" data-link-type="dependency" data-source-line="46" id="lnk31"><path d="M941,282.4566 C941,306.5066 941,336.2966 941,360.1766" fill="none" id="SR3-to-FR4" style="stroke:#181818;stroke-width:1;"/><polygon fill="#181818" points="941,366.1766,945,357.1766,941,361.1766,937,357.1766,941,366.1766" style="stroke:#181818;stroke-width:1;"/></g><!--link FR1 to AF1--><g class="link" data-entity-1="ent0009" data-entity-2="ent0014" data-link-type="dependency" data-source-line="48" id="lnk32"><path d="M342.51,418.5766 C343.07,446.3966 343.8399,484.7478 344.3899,512.2278" fill="none" id="FR1-to-AF1" style="stroke:#181818;stroke-width:1;"/><polygon fill="#181818" points="344.51,518.2266,348.3291,509.1483,344.4099,513.2276,340.3307,509.3084,344.51,518.2266" style="stroke:#181818;stroke-width:1;"/><text fill="#000000" font-family="sans-serif" font-size="13" lengthAdjust="spacing" textLength="82.8115" x="344.41" y="463.9449">implemented</text></g><!--link FR2 to AF2--><g class="link" data-entity-1="ent0010" data-entity-2="ent0015" data-link-type="dependency" data-source-line="49" id="lnk33"><path d="M533,418.2366 C534.14,446.4966 535.7298,486.1214 536.8298,513.5814" fill="none" id="FR2-to-AF2" style="stroke:#181818;stroke-width:1;"/><polygon fill="#181818" points="537.07,519.5766,540.7066,510.4237,536.8699,514.5806,532.713,510.7439,537.07,519.5766" style="stroke:#181818;stroke-width:1;"/><text fill="#000000" font-family="sans-serif" font-size="13" lengthAdjust="spacing" textLength="82.8115" x="535.82" y="463.9449">implemented</text></g><!--link FR3 to AF3--><g class="link" data-entity-1="ent0011" data-entity-2="ent0016" data-link-type="dependency" data-source-line="50" id="lnk34"><path d="M731.83,417.8966 C731.65,445.5966 731.389,484.2767 731.209,511.9867" fill="none" id="FR3-to-AF3" style="stroke:#181818;stroke-width:1;"/><polygon fill="#181818" points="731.17,517.9866,735.2284,509.0127,731.2025,512.9867,727.2285,508.9608,731.17,517.9866" style="stroke:#181818;stroke-width:1;"/><text fill="#000000" font-family="sans-serif" font-size="13" lengthAdjust="spacing" textLength="82.8115" x="732.59" y="463.9449">implemented</text></g><!--link FR4 to AF3--><g class="link" data-entity-1="ent0012" data-entity-2="ent0016" data-link-type="dependency" data-source-line="51" id="lnk35"><path d="M908.65,416.2466 C868.95,444.5066 806.978,488.627 767.588,516.667" fill="none" id="FR4-to-AF3" style="stroke:#181818;stroke-width:1;"/><polygon fill="#181818" points="762.7,520.1466,772.3517,518.1859,766.7733,517.2469,767.7123,511.6685,762.7,520.1466" style="stroke:#181818;stroke-width:1;"/><text fill="#000000" font-family="sans-serif" font-size="13" lengthAdjust="spacing" textLength="82.8115" x="855.81" y="463.9449">implemented</text></g><!--link AF1 to T1--><g class="link" data-entity-1="ent0014" data-entity-2="ent0019" data-link-type="dependency" data-source-line="53" id="lnk36"><path d="M312.8,567.3366 C272.96,595.3266 210.3998,639.2778 170.4098,667.3678" fill="none" id="AF1-to-T1" style="stroke:#181818;stroke-width:1;"/><polygon fill="#181818" points="165.5,670.8166,175.1639,668.9166,169.5915,667.9426,170.5655,662.3702,165.5,670.8166" style="stroke:#181818;stroke-width:1;"/><text fill="#000000" font-family="sans-serif" font-size="13" lengthAdjust="spacing" textLength="47.0107" x="265.22" y="614.6249">verified</text></g><!--link AF2 to T2--><g class="link" data-entity-1="ent0015" data-entity-2="ent0020" data-link-type="dependency" data-source-line="54" id="lnk37"><path d="M512.41,566.3666 C479.71,594.0466 427.9003,637.8809 394.2303,666.3709" fill="none" id="AF2-to-T2" style="stroke:#181818;stroke-width:1;"/><polygon fill="#181818" points="389.65,670.2466,399.1042,667.4866,393.4669,667.0169,393.9367,661.3795,389.65,670.2466" style="stroke:#181818;stroke-width:1;"/><text fill="#000000" font-family="sans-serif" font-size="13" lengthAdjust="spacing" textLength="47.0107" x="471.94" y="614.6249">verified</text></g><!--link AF3 to T3--><g class="link" data-entity-1="ent0016" data-entity-2="ent0021" data-link-type="dependency" data-source-line="55" id="lnk38"><path d="M708.18,568.3166 C681.22,596.1966 640.8008,638.0033 613.8808,665.8433" fill="none" id="AF3-to-T3" style="stroke:#181818;stroke-width:1;"/><polygon fill="#181818" points="609.71,670.1566,618.8417,666.4671,613.1856,666.5621,613.0906,660.9061,609.71,670.1566" style="stroke:#181818;stroke-width:1;"/><text fill="#000000" font-family="sans-serif" font-size="13" lengthAdjust="spacing" textLength="47.0107" x="677.13" y="614.6249">verified</text></g><!--link AF3 to T4--><g class="link" data-entity-1="ent0016" data-entity-2="ent0022" data-link-type="dependency" data-source-line="56" id="lnk39"><path d="M747.29,568.9766 C766,596.8366 793.1452,637.2654 811.7052,664.9054" fill="none" id="AF3-to-T4" style="stroke:#181818;stroke-width:1;"/><polygon fill="#181818" points="815.05,669.8866,813.3536,660.1849,812.2627,665.7356,806.712,664.6447,815.05,669.8866" style="stroke:#181818;stroke-width:1;"/><text fill="#000000" font-family="sans-serif" font-size="13" lengthAdjust="spacing" textLength="47.0107" x="779" y="614.6249">verified</text></g><!--link AF3 to T5--><g class="link" data-entity-1="ent0016" data-entity-2="ent0023" data-link-type="dependency" data-source-line="57" id="lnk40"><path d="M771.9,566.1066 C789.54,574.9566 810.56,585.0166 830,593.0566 C861.69,606.1566 869.75,609.6466 903,618.0566 C923.97,623.3566 930.51,619.1366 951,626.0566 C983.86,637.1466 1013.3438,652.8317 1038.2838,667.7817" fill="none" id="AF3-to-T5" style="stroke:#181818;stroke-width:1;"/><polygon fill="#181818" points="1043.43,670.8666,1037.7672,662.8085,1039.1415,668.2959,1033.6541,669.6701,1043.43,670.8666" style="stroke:#181818;stroke-width:1;"/><text fill="#000000" font-family="sans-serif" font-size="13" lengthAdjust="spacing" textLength="47.0107" x="904" y="614.6249">verified</text></g><!--link AE2 to T7--><g class="link" data-entity-1="ent0017" data-entity-2="ent0024" data-link-type="dependency" data-source-line="58" id="lnk41"><path d="M995.47,558.8966 C1052.68,572.4566 1137.26,595.3866 1207,626.0566 C1235.48,638.5766 1260.561,653.7384 1282.361,668.2084" fill="none" id="AE2-to-T7" style="stroke:#181818;stroke-width:1;"/><polygon fill="#181818" points="1287.36,671.5266,1282.0736,663.2167,1283.1942,668.7614,1277.6494,669.882,1287.36,671.5266" style="stroke:#181818;stroke-width:1;"/><text fill="#000000" font-family="sans-serif" font-size="13" lengthAdjust="spacing" textLength="47.0107" x="1186.45" y="614.6249">verified</text></g><!--link SR2 to T5--><g class="link" data-entity-1="ent0006" data-entity-2="ent0023" data-link-type="dependency" data-source-line="60" id="lnk42"><path d="M764.6,279.0566 C786.14,289.0166 812.86,299.8766 838,306.0466 C882.18,316.8866 1009.57,291.1466 1042,323.0466 C1138.11,417.5966 1103.6779,598.1389 1087.0479,664.0489" fill="none" id="SR2-to-T5" style="stroke:#181818;stroke-width:1;"/><polygon fill="#181818" points="1085.58,669.8666,1091.6603,662.1186,1086.8032,665.0185,1083.9034,660.1615,1085.58,669.8666" style="stroke:#181818;stroke-width:1;"/><text fill="#000000" font-family="sans-serif" font-size="13" lengthAdjust="spacing" textLength="47.0107" x="1104.5" y="463.9449">verified</text></g><?plantuml-src VLLTRjf047xtAKQfrBT8O4FJv24ICUk0HA2rtKYHaD36BB2DsKrtbxIewW5wZ_QzP-XHUfBEhfV48IRcWVNCV3FppOzNtt5nJnLTmoqjxfPARiGybgLKy2RfsLyG66vA1dasl89SqOBHMrvoiuKhQXJ_DXKf-xBXYgsPC1hEeQUA5JUiC1l5yFMQARxW1JLSYY1GAATYYVwEChfWwELIqb8VORI4j2v2-1u0FXlD2ggjqUKPV53i0NrFXLanjQObpEcQBjaHK0tPPJluqUIsdfJp7kEpxpqb7sTPBo7vpQpLQa-5pGNcRC45j-bM4TBsAw1mAlhCaeMltAouW7QhjTOU6Bu2Z6pTxgKoe35Xq8OQpoYDzXWb6r7OT32tFLQaVK78IHEhvDCuhZZr-Z4KKZmmfNUKaYPA7e64nfAZSC5BWwqJImy93qAGIhvIJAzaEOT_FtzZ2Vx-YJqiEWZhJCLWgp46qrmZxjTfzmdMsQj1VQYGUFoUl8jFzudtqdXGOvuneN6E-ueZUUUtbxGF8v1vuZXxq_2mAJBERCDm1J0jmJmYQa2GD9satZlbvR7jTcLEmZsEzKs1jv0pRP3gHKIwoOl9pKcMp-B9-9gasN0ohWYdw8W1BOeDhkdMHSdR3RXaECf9Mc6gPYlscHMF8v-73Q1ya99iC1drArpLP5mMKmT63S31JORHI3RCAgHhCqOi9BR5Pzbfm95nVvPFt9_3ZR3WejZQIUdkTYplDj7h3KTkqNQPmW8hZuFZCIUsxlZXWEFZSxVUJ-UmTexGA0tTYrsOftDOEqTuZlov4mHew5vmqE0C-Fg-TBlAvgW9lIPyeOcy9dgXwHpG13Q0LUKspeCR71HRvquQFfTM0VAeKTffb7QVIOdtUrANFfRXkN4W96x6hJH6hbrtOcapHvcftnuBvTMw-c0lxJq0PeKtq785jBRlpif8CBWGFeo_JfYOWuqM_0S0?></g></svg>