<?plantuml 1.2026.1?><svg xmlns="http://www.w3.org/2000/svg" xmlns:xlink="http://www.w3.org/1999/xlink" contentStyleType="text/css" data-diagram-type="DESCRIPTION" height="1276px" preserveAspectRatio="none" style="width:788px;height:1276px;background:#FAFAFA;" version="1.1" viewBox="0 0 788 1276" width="788px" zoomAndPan="magnify"><title>TSIM Data Flow Diagram
With 100ms Latency Budget (REQ_SAFETY_002)</title><defs/><g><rect fill="#FAFAFA" height="1276" style="stroke:none;stroke-width:1;" width="788" x="0" y="0"/><g class="title" data-source-line="7"><text fill="#000000" font-family="sans-serif" font-size="14" font-weight="bold" lengthAdjust="spacing" textLength="176.9893" x="298.6729" y="23.5352">TSIM Data Flow Diagram</text><text fill="#000000" font-family="sans-serif" font-size="14" font-weight="bold" lengthAdjust="spacing" textLength="340.8945" x="216.7203" y="40.0234">With 100ms Latency Budget (REQ_SAFETY_002)</text></g><!--cluster Timing Budget: 0-100ms--><g class="cluster" data-qualified-name="Timing Budget. 0-100ms" data-source-line="9" id="ent0002"><rect fill="#FFE0B2" height="1089.84" rx="2.5" ry="2.5" style="stroke:#181818;stroke-width:1;" width="578" x="24.99" y="60.9766"/><text fill="#000000" font-family="sans-serif" font-size="14" font-weight="bold" lengthAdjust="spacing" textLength="181.2344" x="223.3728" y="76.5117">Timing Budget: 0-100ms</text></g><!--cluster 0-10ms: Sensor Read--><g class="cluster" data-qualified-name="Timing Budget. 0-100ms.0-10ms. Sensor Read" data-source-line="10" id="ent0003"><rect fill="#B3E5FC" height="235.98" rx="2.5" ry="2.5" style="stroke:#181818;stroke-width:1;" width="188" x="390.99" y="103.9766"/><text fill="#000000" font-family="sans-serif" font-size="14" font-weight="bold" lengthAdjust="spacing" textLength="154.8135" x="407.5833" y="119.5117">0-10ms: Sensor Read</text></g><!--cluster 10-20ms: Filter--><g class="cluster" data-qualified-name="Timing Budget. 0-100ms.10-20ms. Filter" data-source-line="15" id="ent0006"><rect fill="#B3E5FC" height="220.97" rx="2.5" ry="2.5" style="stroke:#181818;stroke-width:1;" width="182" x="383.99" y="403.9566"/><text fill="#000000" font-family="sans-serif" font-size="14" font-weight="bold" lengthAdjust="spacing" textLength="112.834" x="418.573" y="419.4917">10-20ms: Filter</text></g><!--cluster 20-50ms: State Machine--><g class="cluster" data-qualified-name="Timing Budget. 0-100ms.20-50ms. State Machine" data-source-line="20" id="ent0009"><rect fill="#B3E5FC" height="433.17" rx="2.5" ry="2.5" style="stroke:#181818;stroke-width:1;" width="307" x="48.99" y="688.9266"/><text fill="#000000" font-family="sans-serif" font-size="14" font-weight="bold" lengthAdjust="spacing" textLength="175.376" x="114.802" y="704.4617">20-50ms: State Machine</text></g><!--cluster 50-100ms: Safety Margin--><g class="cluster" data-qualified-name="Timing Budget. 0-100ms.50-100ms. Safety Margin" data-source-line="26" id="ent0013"><rect fill="#FFCDD2" height="106.93" rx="2.5" ry="2.5" style="stroke:#181818;stroke-width:1;" width="199" x="379.99" y="1019.8866"/><text fill="#000000" font-family="sans-serif" font-size="14" font-weight="bold" lengthAdjust="spacing" textLength="183.6543" x="387.6629" y="1035.4217">50-100ms: Safety Margin</text></g><!--entity ADC1--><g class="entity" data-qualified-name="Timing Budget. 0-100ms.0-10ms. Sensor Read.ADC1" data-source-line="11" id="ent0004"><rect fill="#F1F1F1" height="46.4883" rx="2.5" ry="2.5" style="stroke:#181818;stroke-width:0.5;" width="109.7197" x="407.13" y="138.9766"/><rect fill="#F1F1F1" height="10" style="stroke:#181818;stroke-width:0.5;" width="15" x="496.8497" y="143.9766"/><rect fill="#F1F1F1" height="2" style="stroke:#181818;stroke-width:0.5;" width="4" x="494.8497" y="145.9766"/><rect fill="#F1F1F1" height="2" style="stroke:#181818;stroke-width:0.5;" width="4" x="494.8497" y="149.9766"/><text fill="#000000" font-family="sans-serif" font-size="14" lengthAdjust="spacing" textLength="69.7197" x="422.13" y="172.5117">ADC Input</text></g><!--entity Conv--><g class="entity" data-qualified-name="Timing Budget. 0-100ms.0-10ms. Sensor Read.Conv" data-source-line="12" id="ent0005"><rect fill="#F1F1F1" height="46.4883" rx="2.5" ry="2.5" style="stroke:#181818;stroke-width:0.5;" width="131.4375" x="409.27" y="277.4666"/><rect fill="#F1F1F1" height="10" style="stroke:#181818;stroke-width:0.5;" width="15" x="520.7075" y="282.4666"/><rect fill="#F1F1F1" height="2" style="stroke:#181818;stroke-width:0.5;" width="4" x="518.7075" y="284.4666"/><rect fill="#F1F1F1" height="2" style="stroke:#181818;stroke-width:0.5;" width="4" x="518.7075" y="288.4666"/><text fill="#000000" font-family="sans-serif" font-size="14" lengthAdjust="spacing" textLength="91.4375" x="424.27" y="311.0017">Convert to &#176;C</text></g><!--entity Buf--><g class="entity" data-qualified-name="Timing Budget. 0-100ms.10-20ms. Filter.Buf" data-source-line="16" id="ent0007"><rect fill="#F1F1F1" height="46.4883" rx="2.5" ry="2.5" style="stroke:#181818;stroke-width:0.5;" width="150.9473" x="399.51" y="438.9566"/><rect fill="#F1F1F1" height="10" style="stroke:#181818;stroke-width:0.5;" width="15" x="530.4573" y="443.9566"/><rect fill="#F1F1F1" height="2" style="stroke:#181818;stroke-width:0.5;" width="4" x="528.4573" y="445.9566"/><rect fill="#F1F1F1" height="2" style="stroke:#181818;stroke-width:0.5;" width="4" x="528.4573" y="449.9566"/><text fill="#000000" font-family="sans-serif" font-size="14" lengthAdjust="spacing" textLength="110.9473" x="414.51" y="472.4917">5-Sample Buffer</text></g><!--entity Avg--><g class="entity" data-qualified-name="Timing Budget. 0-100ms.10-20ms. Filter.Avg" data-source-line="17" id="ent0008"><rect fill="#F1F1F1" height="46.4883" rx="2.5" ry="2.5" style="stroke:#181818;stroke-width:0.5;" width="148.4932" x="400.74" y="562.4366"/><rect fill="#F1F1F1" height="10" style="stroke:#181818;stroke-width:0.5;" width="15" x="529.2332" y="567.4366"/><rect fill="#F1F1F1" height="2" style="stroke:#181818;stroke-width:0.5;" width="4" x="527.2332" y="569.4366"/><rect fill="#F1F1F1" height="2" style="stroke:#181818;stroke-width:0.5;" width="4" x="527.2332" y="573.4366"/><text fill="#000000" font-family="sans-serif" font-size="14" lengthAdjust="spacing" textLength="108.4932" x="415.74" y="595.9717">Moving Average</text></g><!--entity Thresh--><g class="entity" data-qualified-name="Timing Budget. 0-100ms.20-50ms. State Machine.Thresh" data-source-line="21" id="ent0010"><rect fill="#F1F1F1" height="62.9766" rx="2.5" ry="2.5" style="stroke:#181818;stroke-width:0.5;" width="154.3105" x="125.83" y="723.9266"/><rect fill="#F1F1F1" height="10" style="stroke:#181818;stroke-width:0.5;" width="15" x="260.1405" y="728.9266"/><rect fill="#F1F1F1" height="2" style="stroke:#181818;stroke-width:0.5;" width="4" x="258.1405" y="730.9266"/><rect fill="#F1F1F1" height="2" style="stroke:#181818;stroke-width:0.5;" width="4" x="258.1405" y="734.9266"/><text fill="#000000" font-family="sans-serif" font-size="14" lengthAdjust="spacing" textLength="114.3105" x="140.83" y="757.4617">Threshold Check</text><text fill="#000000" font-family="sans-serif" font-size="14" lengthAdjust="spacing" textLength="68.4619" x="140.83" y="773.95">(&#8805;100&#176;C?)</text></g><!--entity Hyst--><g class="entity" data-qualified-name="Timing Budget. 0-100ms.20-50ms. State Machine.Hyst" data-source-line="22" id="ent0011"><rect fill="#F1F1F1" height="62.9766" rx="2.5" ry="2.5" style="stroke:#181818;stroke-width:0.5;" width="109.624" x="129.18" y="878.9066"/><rect fill="#F1F1F1" height="10" style="stroke:#181818;stroke-width:0.5;" width="15" x="218.804" y="883.9066"/><rect fill="#F1F1F1" height="2" style="stroke:#181818;stroke-width:0.5;" width="4" x="216.804" y="885.9066"/><rect fill="#F1F1F1" height="2" style="stroke:#181818;stroke-width:0.5;" width="4" x="216.804" y="889.9066"/><text fill="#000000" font-family="sans-serif" font-size="14" lengthAdjust="spacing" textLength="69.624" x="144.18" y="912.4417">Hysteresis</text><text fill="#000000" font-family="sans-serif" font-size="14" lengthAdjust="spacing" textLength="59.6094" x="144.18" y="928.93">(&#8804;95&#176;C?)</text></g><!--entity Out--><g class="entity" data-qualified-name="Timing Budget. 0-100ms.20-50ms. State Machine.Out" data-source-line="23" id="ent0012"><rect fill="#F1F1F1" height="46.4883" rx="2.5" ry="2.5" style="stroke:#181818;stroke-width:0.5;" width="125.5107" x="65.23" y="1059.6066"/><rect fill="#F1F1F1" height="10" style="stroke:#181818;stroke-width:0.5;" width="15" x="170.7407" y="1064.6066"/><rect fill="#F1F1F1" height="2" style="stroke:#181818;stroke-width:0.5;" width="4" x="168.7407" y="1066.6066"/><rect fill="#F1F1F1" height="2" style="stroke:#181818;stroke-width:0.5;" width="4" x="168.7407" y="1070.6066"/><text fill="#000000" font-family="sans-serif" font-size="14" lengthAdjust="spacing" textLength="85.5107" x="80.23" y="1093.1417">Output State</text></g><g class="entity" data-qualified-name="Timing Budget. 0-100ms.50-100ms. Safety Margin.GMN14" data-source-line="28" id="ent0015"><path d="M395.86,1054.8866 L395.86,1078.8466 L191.14,1082.8466 L395.86,1086.8466 L395.86,1110.8182 A0,0 0 0 0 395.86,1110.8182 L548.1168,1110.8182 A0,0 0 0 0 548.1168,1110.8182 L548.1168,1064.8866 L538.1168,1054.8866 L395.86,1054.8866 A0,0 0 0 0 395.86,1054.8866" fill="#FEFFDD" style="stroke:#181818;stroke-width:0.5;"/><path d="M538.1168,1054.8866 L538.1168,1064.8866 L548.1168,1064.8866 L538.1168,1054.8866" fill="#FEFFDD" style="stroke:#181818;stroke-width:0.5;"/><text fill="#000000" font-family="sans-serif" font-size="13" lengthAdjust="spacing" textLength="83.1162" x="401.86" y="1072.4549">Reserved for:</text><text fill="#000000" font-family="sans-serif" font-size="13" lengthAdjust="spacing" textLength="105.8154" x="401.86" y="1087.7655">Real-time delays</text><text fill="#000000" font-family="sans-serif" font-size="13" lengthAdjust="spacing" textLength="131.2568" x="401.86" y="1103.076">Integration overhead</text></g><g class="entity" data-qualified-name="GMN24" data-source-line="44" id="ent0025"><path d="M618.63,441.8866 L618.63,482.5077 L781.3351,482.5077 L781.3351,451.8866 L771.3351,441.8866 L618.63,441.8866" fill="#FEFFDD" style="stroke:#181818;stroke-width:0.5;"/><path d="M771.3351,441.8866 L771.3351,451.8866 L781.3351,451.8866 L771.3351,441.8866" fill="#FEFFDD" style="stroke:#181818;stroke-width:1;"/><text fill="#000000" font-family="sans-serif" font-size="13" lengthAdjust="spacing" textLength="97.6016" x="624.63" y="459.4549">REQ_FUNC_001</text><text fill="#000000" font-family="sans-serif" font-size="13" lengthAdjust="spacing" textLength="141.7051" x="624.63" y="474.7655">Range: -40 to +125&#176;C</text></g><g class="entity" data-qualified-name="GMN27" data-source-line="49" id="ent0028"><path d="M618.69,735.1066 L618.69,775.7277 A0,0 0 0 0 618.69,775.7277 L737.2916,775.7277 A0,0 0 0 0 737.2916,775.7277 L737.2916,745.1066 L727.2916,735.1066 L658.19,735.1066 L502.36,609.3066 L650.19,735.1066 L618.69,735.1066 A0,0 0 0 0 618.69,735.1066" fill="#FEFFDD" style="stroke:#181818;stroke-width:0.5;"/><path d="M727.2916,735.1066 L727.2916,745.1066 L737.2916,745.1066 L727.2916,735.1066" fill="#FEFFDD" style="stroke:#181818;stroke-width:0.5;"/><text fill="#000000" font-family="sans-serif" font-size="13" lengthAdjust="spacing" textLength="97.6016" x="624.69" y="752.6749">REQ_FUNC_002</text><text fill="#000000" font-family="sans-serif" font-size="13" lengthAdjust="spacing" textLength="97.3223" x="624.69" y="767.9855">Noise Rejection</text></g><g class="entity" data-qualified-name="GMN30" data-source-line="54" id="ent0031"><path d="M6,1197.8166 L6,1269.0588 A0,0 0 0 0 6,1269.0588 L249.9741,1269.0588 A0,0 0 0 0 249.9741,1269.0588 L249.9741,1207.8166 L239.9741,1197.8166 L131.99,1197.8166 L127.99,1106.4166 L123.99,1197.8166 L6,1197.8166 A0,0 0 0 0 6,1197.8166" fill="#FEFFDD" style="stroke:#181818;stroke-width:0.5;"/><path d="M239.9741,1197.8166 L239.9741,1207.8166 L249.9741,1207.8166 L239.9741,1197.8166" fill="#FEFFDD" style="stroke:#181818;stroke-width:0.5;"/><text fill="#000000" font-family="sans-serif" font-size="13" lengthAdjust="spacing" textLength="204.731" x="12" y="1215.3849">REQ_SAFETY_002: Within 100ms</text><text fill="#000000" font-family="sans-serif" font-size="13" lengthAdjust="spacing" textLength="193.4829" x="12" y="1230.6955">REQ_SAFETY_003: Safe/Unsafe</text><text fill="#000000" font-family="sans-serif" font-size="13" lengthAdjust="spacing" textLength="155.4604" x="12" y="1246.006">REQ_FUNC_003: &#8805;100&#176;C</text><text fill="#000000" font-family="sans-serif" font-size="13" lengthAdjust="spacing" textLength="222.9741" x="12" y="1261.3166">REQ_FUNC_004: &#8804;95&#176;C (hysteresis)</text></g><!--link ADC1 to Conv--><g class="link" data-entity-1="ent0004" data-entity-2="ent0005" data-link-type="dependency" data-source-line="35" id="lnk17"><path d="M464.13,185.7566 C466.54,211.0466 469.861,245.8636 472.271,271.1636" fill="none" id="ADC1-to-Conv" style="stroke:#181818;stroke-width:1;"/><polygon fill="#181818" points="472.84,277.1366,475.9685,267.7978,472.3659,272.1591,468.0046,268.5564,472.84,277.1366" style="stroke:#181818;stroke-width:1;"/><text fill="#000000" font-family="sans-serif" font-size="13" lengthAdjust="spacing" textLength="70.2939" x="495.025" y="229.0349">Raw 12-bit</text><text fill="#000000" font-family="sans-serif" font-size="13" lengthAdjust="spacing" textLength="119.0439" x="470.65" y="244.3455">ARCH_SIGNAL_001</text></g><!--link Conv to Buf--><g class="link" data-entity-1="ent0005" data-entity-2="ent0007" data-link-type="dependency" data-source-line="36" id="lnk18"><path d="M474.99,324.2166 C474.99,354.5366 474.99,402.1566 474.99,432.5466" fill="none" id="Conv-to-Buf" style="stroke:#181818;stroke-width:1;"/><polygon fill="#181818" points="474.99,438.5466,478.99,429.5466,474.99,433.5466,470.99,429.5466,474.99,438.5466" style="stroke:#181818;stroke-width:1;"/><text fill="#000000" font-family="sans-serif" font-size="13" lengthAdjust="spacing" textLength="81.0151" x="489.4692" y="369.5249">Temperature</text><text fill="#000000" font-family="sans-serif" font-size="13" lengthAdjust="spacing" textLength="107.9736" x="475.99" y="384.8355">ARCH_FUNC_001</text></g><!--link Buf to Avg--><g class="link" data-entity-1="ent0007" data-entity-2="ent0008" data-link-type="dependency" data-source-line="37" id="lnk19"><path d="M474.99,485.7666 C474.99,507.5866 474.99,534.4566 474.99,556.2366" fill="none" id="Buf-to-Avg" style="stroke:#181818;stroke-width:1;"/><polygon fill="#181818" points="474.99,562.2366,478.99,553.2366,474.99,557.2366,470.99,553.2366,474.99,562.2366" style="stroke:#181818;stroke-width:1;"/><text fill="#000000" font-family="sans-serif" font-size="13" lengthAdjust="spacing" textLength="64.3335" x="475.99" y="529.0049">Buffer Full</text></g><!--link Avg to Thresh--><g class="link" data-entity-1="ent0008" data-entity-2="ent0010" data-link-type="dependency" data-source-line="38" id="lnk20"><path d="M438.3,609.3066 C390.45,638.8166 311.6368,687.4169 258.0168,720.4869" fill="none" id="Avg-to-Thresh" style="stroke:#181818;stroke-width:1;"/><polygon fill="#181818" points="252.91,723.6366,262.67,722.3167,257.1657,721.0119,258.4705,715.5076,252.91,723.6366" style="stroke:#181818;stroke-width:1;"/><text fill="#000000" font-family="sans-serif" font-size="13" lengthAdjust="spacing" textLength="87.2295" x="403.9172" y="654.4949">Filtered Temp</text><text fill="#000000" font-family="sans-serif" font-size="13" lengthAdjust="spacing" textLength="119.0439" x="388.01" y="669.8055">ARCH_SIGNAL_002</text></g><!--link Thresh to Hyst--><g class="link" data-entity-1="ent0010" data-entity-2="ent0011" data-link-type="dependency" data-source-line="39" id="lnk21"><path d="M199.14,787.3766 C195.85,813.9166 191.8584,846.0022 188.5684,872.5322" fill="none" id="Thresh-to-Hyst" style="stroke:#181818;stroke-width:1;"/><polygon fill="#181818" points="187.83,878.4866,192.9072,870.0472,188.4453,873.5246,184.968,869.0627,187.83,878.4866" style="stroke:#181818;stroke-width:1;"/><text fill="#000000" font-family="sans-serif" font-size="13" lengthAdjust="spacing" textLength="81.0151" x="209.6692" y="830.4749">Temperature</text><text fill="#000000" font-family="sans-serif" font-size="13" lengthAdjust="spacing" textLength="107.9736" x="196.19" y="845.7855">ARCH_FUNC_002</text></g><!--link Hyst to Out--><g class="link" data-entity-1="ent0011" data-entity-2="ent0012" data-link-type="dependency" data-source-line="40" id="lnk22"><path d="M173.85,942.2666 C162.78,975.9366 147.2135,1023.3465 137.3335,1053.4065" fill="none" id="Hyst-to-Out" style="stroke:#181818;stroke-width:1;"/><polygon fill="#181818" points="135.46,1059.1066,142.0702,1051.8055,137.0212,1054.3566,134.4702,1049.3076,135.46,1059.1066" style="stroke:#181818;stroke-width:1;"/><text fill="#000000" font-family="sans-serif" font-size="13" lengthAdjust="spacing" textLength="89.0957" x="173.089" y="985.4549">State Decision</text><text fill="#000000" font-family="sans-serif" font-size="13" lengthAdjust="spacing" textLength="107.9736" x="163.65" y="1000.7655">ARCH_FUNC_003</text></g><!--link Out to Out--><g class="link" data-entity-1="ent0012" data-entity-2="ent0012" data-link-type="dependency" data-source-line="41" id="lnk23"><path d="M190.98,1067.0266 C210.45,1067.3466 225.74,1072.6166 225.74,1082.8466 C225.74,1093.0766 216.4492,1098.248 196.9792,1098.568" fill="none" id="Out-to-Out" style="stroke:#181818;stroke-width:1;"/><polygon fill="#181818" points="190.98,1098.6666,200.0445,1102.5181,195.9793,1098.5844,199.9131,1094.5192,190.98,1098.6666" style="stroke:#181818;stroke-width:1;"/><text fill="#000000" font-family="sans-serif" font-size="13" lengthAdjust="spacing" textLength="85.4014" x="248.5613" y="1080.4149">SAFE/UNSAFE</text><text fill="#000000" font-family="sans-serif" font-size="13" lengthAdjust="spacing" textLength="119.0439" x="231.74" y="1095.7255">ARCH_SIGNAL_003</text></g><!--link Conv to GMN24--><g class="link" data-entity-1="ent0005" data-entity-2="ent0025" data-link-type="association" data-source-line="44" id="lnk26"><path d="M533.93,324.3666 C553.19,332.9666 574.2,343.6966 591.99,355.9566 C628.42,381.0566 663.82,418.8766 683.67,441.6866" fill="none" id="Conv-GMN24" style="stroke:#181818;stroke-width:1;stroke-dasharray:7,7;"/></g><?plantuml-src XPJHRjem58Rl_HIdxARL53M4CgrSR0g1h4WKjeHgcbG9kOb9l2OsIXmgDFK1zXxR_PvXZx8dsR53W3BM1ec0ptVi__ZyzadC5bmm-1XClM4OphtfU1h0gtvdsFKzShA9XhDfC6nYtjlX6-zo6nkuCxS9-Rv_wLqGKjvpiQG5pU6EHlT98IiHUpAJ1IAk_X2YkCeOpCBHDGoeek1dyW46d2QOTIi-SvL2sxRp4iPKCH6jeL_52LDm6Wm_pKFN7yw-p6tREIEaO96Y8i7PMZEUSv5iq1xObfcYfOKDxRu3tmZWivUWYRpiGSX4YUe2HkDMK_s6rayaywKKJ2XekGCFHc9PgHRG4l1V-nZbIR5YXG8buVSlpw1woA2FvljGITks72F5vvbYnGigkbP8yoNczQl5GjEu0FuyXbxBbTuJ5_NGXDMgLyapIXpRwjQRed3huPf6AVRv1K6pj61bAhCOl9H5zxVYzC_tdxZxMFtxCxDeJHpBlLgNM34hUMdIVbnsTrawTYndMYdiGItHW3ZmJ4tTZHMmABfWQerL5GaNnXdUOE3i5IKa5btm9Dsjgv-0bQnOiHWMikWTH6XcAPupY5b6r-MJu4WeXfPMN0gGs88K7RO5c8ZDSXlXZuHeFu5blJDkWHu4z07QZdN7rQrm0-zg7eu-JDmnEhzD3A9PR3oYCvOliSMgAjY6zMycdY4re47iEuArPS2liepe4HsfcmED-x1CFTtXcWxPS3f5T-QvPHrY28rYRw2nqu15lCJTU0ftY6RsM3pWvpSJ_JeKqI74jEXEAYLpa8lToT9NmxPeCu3jPpsmBcnz4b-t7UqiijtsmucQSx4tZsC69fAN31lz5Hs5sly_G-F2fvTK3_HznaLze_qBT6fRdj-84b-74Z2wFKk7iGiTgmyCdARRStIsK_WN?></g></svg>