<?plantuml 1.2026.1?><svg xmlns="http://www.w3.org/2000/svg" xmlns:xlink="http://www.w3.org/1999/xlink" contentStyleType="text/css" data-diagram-type="DESCRIPTION" height="842px" preserveAspectRatio="none" style="width:1480px;height:842px;background:#FAFAFA;" version="1.1" viewBox="0 0 1480 842" width="1480px" zoomAndPan="magnify"><title>TSIM Traceability Matrix
Requirements &gt; Architecture &gt; Verification</title><defs/><g><rect fill="#FAFAFA" height="842" style="stroke:none;stroke-width:1;" width="1480" x="0" y="0"/><g class="title" data-source-line="4"><text fill="#000000" font-family="sans-serif" font-size="14" font-weight="bold" lengthAdjust="spacing" textLength="192.7051" x="636.6475" y="22.9951">TSIM Traceability Matrix</text><text fill="#000000" font-family="sans-serif" font-size="14" font-weight="bold" lengthAdjust="spacing" textLength="343.5879" x="561.2061" y="39.292">Requirements &gt; Architecture &gt; Verification</text></g><!--cluster Safety Goals--><g class="cluster" data-qualified-name="Safety Goals" data-source-line="6" id="ent0002"><rect fill="#FFE0B2" height="100" rx="2.5" ry="2.5" style="stroke:#181818;stroke-width:1;" width="194" x="753" y="60.5938"/><text fill="#000000" font-family="sans-serif" font-size="14" font-weight="bold" lengthAdjust="spacing" textLength="99.4971" x="800.2515" y="75.5889">Safety Goals</text></g><!--cluster Safety Requirements--><g class="cluster" data-qualified-name="Safety Requirements" data-source-line="10" id="ent0004"><rect fill="#FFCCCC" height="103" rx="2.5" ry="2.5" style="stroke:#181818;stroke-width:1;" width="660" x="523" y="193.5938"/><text fill="#000000" font-family="sans-serif" font-size="14" font-weight="bold" lengthAdjust="spacing" textLength="166.3457" x="769.8271" y="208.5889">Safety Requirements</text></g><!--cluster Functional Requirements--><g class="cluster" data-qualified-name="Functional Requirements" data-source-line="16" id="ent0008"><rect fill="#E1BEE7" height="103" rx="2.5" ry="2.5" style="stroke:#181818;stroke-width:1;" width="813" x="368" y="329.5938"/><text fill="#000000" font-family="sans-serif" font-size="14" font-weight="bold" lengthAdjust="spacing" textLength="198.5293" x="675.2354" y="344.5889">Functional Requirements</text></g><!--cluster Architecture--><g class="cluster" data-qualified-name="Architecture" data-source-line="23" id="ent0013"><rect fill="#C8E6C9" height="101" rx="2.5" ry="2.5" style="stroke:#181818;stroke-width:1;" width="800" x="366" y="481.5938"/><text fill="#000000" font-family="sans-serif" font-size="14" font-weight="bold" lengthAdjust="spacing" textLength="98.3486" x="716.8257" y="496.5889">Architecture</text></g><!--cluster Verification & Test--><g class="cluster" data-qualified-name="Verification . Test" data-source-line="30" id="ent0018"><rect fill="#B3E5FC" height="102" rx="2.5" ry="2.5" style="stroke:#181818;stroke-width:1;" width="1467" x="7" y="631.5938"/><text fill="#000000" font-family="sans-serif" font-size="14" font-weight="bold" lengthAdjust="spacing" textLength="147.7725" x="666.6138" y="646.5889">Verification &amp; Test</text></g><!--entity SG1--><g class="entity" data-qualified-name="Safety Goals.SG1" data-source-line="7" id="ent0003"><ellipse cx="849.9535" cy="120.2687" fill="#F1F1F1" rx="80.4535" ry="24.675" style="stroke:#181818;stroke-width:0.5;"/><text fill="#000000" font-family="sans-serif" font-size="14" lengthAdjust="spacing" textLength="82.9746" x="808.4662" y="114.7623">SG: Prevent</text><text fill="#000000" font-family="sans-serif" font-size="14" lengthAdjust="spacing" textLength="116.4707" x="791.7181" y="131.0591">thermal damage</text></g><!--entity SR1--><g class="entity" data-qualified-name="Safety Requirements.SR1" data-source-line="11" id="ent0005"><ellipse cx="626.0565" cy="254.775" fill="#F1F1F1" rx="86.5565" ry="25.1813" style="stroke:#181818;stroke-width:0.5;"/><text fill="#000000" font-family="sans-serif" font-size="14" lengthAdjust="spacing" textLength="122.7803" x="564.6664" y="252.5246">REQ_SAFETY_001</text><text fill="#000000" font-family="sans-serif" font-size="14" lengthAdjust="spacing" textLength="102.2314" x="574.9408" y="268.8215">Goal definition</text></g><!--entity SR2--><g class="entity" data-qualified-name="Safety Requirements.SR2" data-source-line="12" id="ent0006"><ellipse cx="849.8633" cy="254.8216" fill="#F1F1F1" rx="102.3633" ry="25.2278" style="stroke:#181818;stroke-width:0.5;"/><text fill="#000000" font-family="sans-serif" font-size="14" lengthAdjust="spacing" textLength="122.7803" x="788.4731" y="250.1405">REQ_SAFETY_002</text><text fill="#000000" font-family="sans-serif" font-size="14" lengthAdjust="spacing" textLength="145.7012" x="777.0127" y="266.4374">Detect within 100ms</text></g><!--entity SR3--><g class="entity" data-qualified-name="Safety Requirements.SR3" data-source-line="13" id="ent0007"><ellipse cx="1076.9754" cy="254.5499" fill="#F1F1F1" rx="89.4754" ry="25.9561" style="stroke:#181818;stroke-width:0.5;"/><text fill="#000000" font-family="sans-serif" font-size="14" lengthAdjust="spacing" textLength="122.7803" x="1015.5853" y="251.179">REQ_SAFETY_003</text><text fill="#000000" font-family="sans-serif" font-size="14" lengthAdjust="spacing" textLength="120.8184" x="1016.5662" y="267.4759">Report safe state</text></g><!--entity FR1--><g class="entity" data-qualified-name="Functional Requirements.FR1" data-source-line="17" id="ent0009"><ellipse cx="465.1129" cy="390.5316" fill="#F1F1F1" rx="81.1129" ry="25.9379" style="stroke:#181818;stroke-width:0.5;"/><text fill="#000000" font-family="sans-serif" font-size="14" lengthAdjust="spacing" textLength="108.8623" x="410.6817" y="386.8766">REQ_FUNC_001</text><text fill="#000000" font-family="sans-serif" font-size="14" lengthAdjust="spacing" textLength="110.9951" x="409.6153" y="403.1734">ADC conversion</text></g><!--entity FR2--><g class="entity" data-qualified-name="Functional Requirements.FR2" data-source-line="18" id="ent0010"><ellipse cx="659.0978" cy="390.5783" fill="#F1F1F1" rx="78.0978" ry="25.4845" style="stroke:#181818;stroke-width:0.5;"/><text fill="#000000" font-family="sans-serif" font-size="14" lengthAdjust="spacing" textLength="108.8623" x="604.6666" y="387.8843">REQ_FUNC_002</text><text fill="#000000" font-family="sans-serif" font-size="14" lengthAdjust="spacing" textLength="97.501" x="610.3473" y="404.1812">Noise filtering</text></g><!--entity FR3--><g class="entity" data-qualified-name="Functional Requirements.FR3" data-source-line="19" id="ent0011"><ellipse cx="862.985" cy="390.8278" fill="#F1F1F1" rx="90.985" ry="25.2341" style="stroke:#181818;stroke-width:0.5;"/><text fill="#000000" font-family="sans-serif" font-size="14" lengthAdjust="spacing" textLength="108.8623" x="808.5539" y="386.156">REQ_FUNC_003</text><text fill="#000000" font-family="sans-serif" font-size="14" lengthAdjust="spacing" textLength="128.9805" x="798.4948" y="402.4528">Threshold &#8805;100&#176;C</text></g><!--entity FR4--><g class="entity" data-qualified-name="Functional Requirements.FR4" data-source-line="20" id="ent0012"><ellipse cx="1077.1092" cy="390.4963" fill="#F1F1F1" rx="88.1092" ry="25.4026" style="stroke:#181818;stroke-width:0.5;"/><text fill="#000000" font-family="sans-serif" font-size="14" lengthAdjust="spacing" textLength="108.8623" x="1022.678" y="386.0711">REQ_FUNC_004</text><text fill="#000000" font-family="sans-serif" font-size="14" lengthAdjust="spacing" textLength="123.8262" x="1015.1961" y="402.368">Hysteresis &#8804;95&#176;C</text></g><!--entity AF1--><g class="entity" data-qualified-name="Architecture.AF1" data-source-line="24" id="ent0014"><ellipse cx="464.9214" cy="541.6437" fill="#F1F1F1" rx="83.4214" ry="25.05" style="stroke:#181818;stroke-width:0.5;"/><text fill="#000000" font-family="sans-serif" font-size="14" lengthAdjust="spacing" textLength="118.877" x="405.4829" y="539.5875">ARCH_FUNC_001</text><text fill="#000000" font-family="sans-serif" font-size="14" lengthAdjust="spacing" textLength="95.5186" x="417.1621" y="555.8844">Sensor Driver</text></g><!--entity AF2--><g class="entity" data-qualified-name="Architecture.AF2" data-source-line="25" id="ent0015"><ellipse cx="662.1094" cy="541.6873" fill="#F1F1F1" rx="78.1094" ry="23.5935" style="stroke:#181818;stroke-width:0.5;"/><text fill="#000000" font-family="sans-serif" font-size="14" lengthAdjust="spacing" textLength="118.877" x="602.6709" y="541.8943">ARCH_FUNC_002</text><text fill="#000000" font-family="sans-serif" font-size="14" lengthAdjust="spacing" textLength="35.6904" x="644.2642" y="558.1911">Filter</text></g><!--entity AF3--><g class="entity" data-qualified-name="Architecture.AF3" data-source-line="26" id="ent0016"><ellipse cx="859.061" cy="541.8191" fill="#F1F1F1" rx="84.061" ry="25.2253" style="stroke:#181818;stroke-width:0.5;"/><text fill="#000000" font-family="sans-serif" font-size="14" lengthAdjust="spacing" textLength="118.877" x="799.6225" y="539.5038">ARCH_FUNC_003</text><text fill="#000000" font-family="sans-serif" font-size="14" lengthAdjust="spacing" textLength="100.1123" x="809.0048" y="555.8007">State Machine</text></g><!--entity AE2--><g class="entity" data-qualified-name="Architecture.AE2" data-source-line="27" id="ent0017"><ellipse cx="1063.9135" cy="541.482" fill="#F1F1F1" rx="85.9135" ry="23.8883" style="stroke:#181818;stroke-width:0.5;"/><text fill="#000000" font-family="sans-serif" font-size="14" lengthAdjust="spacing" textLength="129.377" x="999.225" y="541.2125">ARCH_ERROR_002</text><text fill="#000000" font-family="sans-serif" font-size="14" lengthAdjust="spacing" textLength="58.8779" x="1034.4745" y="557.5093">Fail-safe</text></g><!--entity T1--><g class="entity" data-qualified-name="Verification . Test.T1" data-source-line="31" id="ent0019"><ellipse cx="135.8586" cy="691.9655" fill="#F1F1F1" rx="112.3586" ry="24.8717" style="stroke:#181818;stroke-width:0.5;"/><text fill="#000000" font-family="sans-serif" font-size="14" lengthAdjust="spacing" textLength="169.4834" x="51.1169" y="690.9375">TEST_CONVERSION_001</text><text fill="#000000" font-family="sans-serif" font-size="14" lengthAdjust="spacing" textLength="112.2939" x="79.7116" y="707.2344">Range accuracy</text></g><!--entity T2--><g class="entity" data-qualified-name="Verification . Test.T2" data-source-line="32" id="ent0020"><ellipse cx="370.8411" cy="691.8716" fill="#F1F1F1" rx="86.8411" ry="25.2779" style="stroke:#181818;stroke-width:0.5;"/><text fill="#000000" font-family="sans-serif" font-size="14" lengthAdjust="spacing" textLength="122.6641" x="309.509" y="689.4792">TEST_FILTER_001</text><text fill="#000000" font-family="sans-serif" font-size="14" lengthAdjust="spacing" textLength="104.6719" x="318.5051" y="705.776">Noise rejection</text></g><!--entity T3--><g class="entity" data-qualified-name="Verification . Test.T3" data-source-line="33" id="ent0021"><ellipse cx="604.204" cy="692.2335" fill="#F1F1F1" rx="110.704" ry="24.6397" style="stroke:#181818;stroke-width:0.5;"/><text fill="#000000" font-family="sans-serif" font-size="14" lengthAdjust="spacing" textLength="162.2236" x="523.0922" y="690.7934">TEST_THRESHOLD_001</text><text fill="#000000" font-family="sans-serif" font-size="14" lengthAdjust="spacing" textLength="114.0645" x="547.1717" y="707.0903">100&#176;C detection</text></g><!--entity T4--><g class="entity" data-qualified-name="Verification . Test.T4" data-source-line="34" id="ent0022"><ellipse cx="858.7629" cy="691.9524" fill="#F1F1F1" rx="108.7629" ry="24.3586" style="stroke:#181818;stroke-width:0.5;"/><text fill="#000000" font-family="sans-serif" font-size="14" lengthAdjust="spacing" textLength="161.3965" x="778.0646" y="690.9434">TEST_HYSTERESIS_001</text><text fill="#000000" font-family="sans-serif" font-size="14" lengthAdjust="spacing" textLength="100.6113" x="808.4572" y="707.2402">95&#176;C recovery</text></g><!--entity T5--><g class="entity" data-qualified-name="Verification . Test.T5" data-source-line="35" id="ent0023"><ellipse cx="1346.1046" cy="691.9147" fill="#F1F1F1" rx="112.1046" ry="24.8209" style="stroke:#181818;stroke-width:0.5;"/><text fill="#000000" font-family="sans-serif" font-size="14" lengthAdjust="spacing" textLength="169.3262" x="1261.4415" y="690.9479">TEST_END_TO_END_001</text><text fill="#000000" font-family="sans-serif" font-size="14" lengthAdjust="spacing" textLength="110.2637" x="1290.9727" y="707.2447">Latency &#8804;50ms</text></g><!--entity T7--><g class="entity" data-qualified-name="Verification . Test.T7" data-source-line="36" id="ent0024"><ellipse cx="1101.0384" cy="692.0979" fill="#F1F1F1" rx="98.0384" ry="24.0041" style="stroke:#181818;stroke-width:0.5;"/><text fill="#000000" font-family="sans-serif" font-size="14" lengthAdjust="spacing" textLength="147.4785" x="1027.2992" y="691.6439">TEST_FAIL_SAFE_001</text><text fill="#000000" font-family="sans-serif" font-size="14" lengthAdjust="spacing" textLength="74.0879" x="1063.9945" y="707.9408">10 failures</text></g><g class="entity" data-qualified-name="GMN43" data-source-line="63" id="ent0044"><path d="M981.5,780.5938 L981.5,835.9922 A0,0 0 0 0 981.5,835.9922 L1220.1548,835.9922 A0,0 0 0 0 1220.1548,835.9922 L1220.1548,790.5938 L1210.1548,780.5938 L1105,780.5938 L1101,716.1637 L1097,780.5938 L981.5,780.5938 A0,0 0 0 0 981.5,780.5938" fill="#FEFFDD" style="stroke:#181818;stroke-width:0.5;"/><path d="M1210.1548,780.5938 L1210.1548,790.5938 L1220.1548,790.5938 L1210.1548,780.5938" fill="#FEFFDD" style="stroke:#181818;stroke-width:0.5;"/><text fill="#000000" font-family="sans-serif" font-size="13" lengthAdjust="spacing" textLength="174.8525" x="987.5" y="797.6606">Complete traceability from</text><text fill="#000000" font-family="sans-serif" font-size="13" lengthAdjust="spacing" textLength="217.6548" x="987.5" y="812.7935">safety goals through architecture</text><text fill="#000000" font-family="sans-serif" font-size="13" lengthAdjust="spacing" textLength="119.1328" x="987.5" y="827.9263">to test verification</text></g><!--link SG1 to SR1--><g class="link" data-entity-1="ent0003" data-entity-2="ent0005" data-link-type="dependency" data-source-line="39" id="lnk25"><path d="M810.07,141.4538 C786.5,153.7537 756.23,170.0037 730,185.5938 C705.71,200.0338 684.0179,214.144 663.7779,227.764" fill="none" id="SG1-to-SR1" style="stroke:#181818;stroke-width:1;"/><polygon fill="#181818" points="658.8,231.1137,668.5,229.4077,662.9482,228.3223,664.0337,222.7706,658.8,231.1137" style="stroke:#181818;stroke-width:1;"/></g><!--link SG1 to SR2--><g class="link" data-entity-1="ent0003" data-entity-2="ent0006" data-link-type="dependency" data-source-line="40" id="lnk26"><path d="M850,144.7838 C850,168.6038 850,199.1537 850,223.2138" fill="none" id="SG1-to-SR2" style="stroke:#181818;stroke-width:1;"/><polygon fill="#181818" points="850,229.2138,854,220.2138,850,224.2138,846,220.2138,850,229.2138" style="stroke:#181818;stroke-width:1;"/></g><!--link SG1 to SR3--><g class="link" data-entity-1="ent0003" data-entity-2="ent0007" data-link-type="dependency" data-source-line="41" id="lnk27"><path d="M889.58,141.4438 C913.17,153.7938 943.57,170.1137 970,185.5938 C994.5,199.9438 1016.4503,213.8223 1037.1903,227.3123" fill="none" id="SG1-to-SR3" style="stroke:#181818;stroke-width:1;"/><polygon fill="#181818" points="1042.22,230.5838,1036.8565,222.3234,1038.0286,227.8575,1032.4945,229.0297,1042.22,230.5838" style="stroke:#181818;stroke-width:1;"/></g><!--link SR2 to FR1--><g class="link" data-entity-1="ent0006" data-entity-2="ent0009" data-link-type="dependency" data-source-line="43" id="lnk28"><path d="M805.72,277.2238 C783.5,287.1537 755.87,298.1337 730,304.5938 C658.05,322.5738 633.62,296.0237 564,321.5938 C536.99,331.5138 514.9755,346.6965 496.1355,362.0965" fill="none" id="SR2-to-FR1" style="stroke:#181818;stroke-width:1;"/><polygon fill="#181818" points="491.49,365.8938,500.9898,363.2948,495.3613,362.7294,495.9267,357.1008,491.49,365.8938" style="stroke:#181818;stroke-width:1;"/></g><!--link SR2 to FR2--><g class="link" data-entity-1="ent0006" data-entity-2="ent0010" data-link-type="dependency" data-source-line="44" id="lnk29"><path d="M816.97,278.4238 C798.68,291.1038 775.55,307.1738 755,321.5938 C733.43,336.7238 714.1116,350.3992 695.4016,363.6892" fill="none" id="SR2-to-FR2" style="stroke:#181818;stroke-width:1;"/><polygon fill="#181818" points="690.51,367.1638,700.1637,365.213,694.5863,364.2683,695.531,358.6909,690.51,367.1638" style="stroke:#181818;stroke-width:1;"/></g><!--link SR2 to FR3--><g class="link" data-entity-1="ent0006" data-entity-2="ent0011" data-link-type="dependency" data-source-line="45" id="lnk30"><path d="M852.35,279.8638 C854.71,304.1437 857.7306,335.3118 860.0806,359.5318" fill="none" id="SR2-to-FR3" style="stroke:#181818;stroke-width:1;"/><polygon fill="#181818" points="860.66,365.5038,863.7721,356.1595,860.1771,360.5271,855.8095,356.9321,860.66,365.5038" style="stroke:#181818;stroke-width:1;"/></g><!--link SR3 to FR4--><g class="link" data-entity-1="ent0007" data-entity-2="ent0012" data-link-type="dependency" data-source-line="46" id="lnk31"><path d="M1077,280.7938 C1077,304.9037 1077,335.0338 1077,358.9538" fill="none" id="SR3-to-FR4" style="stroke:#181818;stroke-width:1;"/><polygon fill="#181818" points="1077,364.9538,1081,355.9538,1077,359.9538,1073,355.9538,1077,364.9538" style="stroke:#181818;stroke-width:1;"/></g><!--link FR1 to AF1--><g class="link" data-entity-1="ent0009" data-entity-2="ent0014" data-link-type="dependency" data-source-line="48" id="lnk32"><path d="M465,416.8738 C465,444.6038 465,482.8038 465,510.1838" fill="none" id="FR1-to-AF1" style="stroke:#181818;stroke-width:1;"/><polygon fill="#181818" points="465,516.1837,469,507.1838,465,511.1838,461,507.1838,465,516.1837" style="stroke:#181818;stroke-width:1;"/><text fill="#000000" font-family="sans-serif" font-size="13" lengthAdjust="spacing" textLength="86.3853" x="466" y="461.6606">implemented</text></g><!--link FR2 to AF2--><g class="link" data-entity-1="ent0010" data-entity-2="ent0015" data-link-type="dependency" data-source-line="49" id="lnk33"><path d="M659.5,416.1938 C660.06,444.4638 660.8697,484.475 661.4197,511.905" fill="none" id="FR2-to-AF2" style="stroke:#181818;stroke-width:1;"/><polygon fill="#181818" points="661.54,517.9038,665.3588,508.8254,661.4398,512.9048,657.3604,508.9857,661.54,517.9038" style="stroke:#181818;stroke-width:1;"/><text fill="#000000" font-family="sans-serif" font-size="13" lengthAdjust="spacing" textLength="86.3853" x="661" y="461.6606">implemented</text></g><!--link FR3 to AF3--><g class="link" data-entity-1="ent0011" data-entity-2="ent0016" data-link-type="dependency" data-source-line="50" id="lnk34"><path d="M862.35,415.8638 C861.6,443.5738 860.5624,482.6359 859.8124,510.3359" fill="none" id="FR3-to-AF3" style="stroke:#181818;stroke-width:1;"/><polygon fill="#181818" points="859.65,516.3338,863.8921,507.4453,859.7853,511.3356,855.8951,507.2288,859.65,516.3338" style="stroke:#181818;stroke-width:1;"/><text fill="#000000" font-family="sans-serif" font-size="13" lengthAdjust="spacing" textLength="86.3853" x="862" y="461.6606">implemented</text></g><!--link FR4 to AF3--><g class="link" data-entity-1="ent0012" data-entity-2="ent0016" data-link-type="dependency" data-source-line="51" id="lnk35"><path d="M1043.89,414.2238 C1002.56,442.4738 937.2835,487.088 896.3035,515.098" fill="none" id="FR4-to-AF3" style="stroke:#181818;stroke-width:1;"/><polygon fill="#181818" points="891.35,518.4838,901.0374,516.7075,895.4779,515.6623,896.5231,510.1029,891.35,518.4838" style="stroke:#181818;stroke-width:1;"/><text fill="#000000" font-family="sans-serif" font-size="13" lengthAdjust="spacing" textLength="86.3853" x="988" y="461.6606">implemented</text></g><!--link AF1 to T1--><g class="link" data-entity-1="ent0014" data-entity-2="ent0019" data-link-type="dependency" data-source-line="53" id="lnk36"><path d="M414.85,561.7138 C374.51,577.4137 316.58,600.7338 267,623.5938 C236.45,637.6838 208.0161,652.2839 182.4361,665.9039" fill="none" id="AF1-to-T1" style="stroke:#181818;stroke-width:1;"/><polygon fill="#181818" points="177.14,668.7238,186.964,668.0246,181.5534,666.3739,183.2042,660.9632,177.14,668.7238" style="stroke:#181818;stroke-width:1;"/><text fill="#000000" font-family="sans-serif" font-size="13" lengthAdjust="spacing" textLength="49.0864" x="321" y="611.6606">verified</text></g><!--link AF2 to T2--><g class="link" data-entity-1="ent0015" data-entity-2="ent0020" data-link-type="dependency" data-source-line="54" id="lnk37"><path d="M624.62,562.5038 C607.04,571.5538 585.67,582.1038 566,590.5938 C526.89,607.4838 514.15,604.6238 476,623.5938 C450.19,636.4238 427.7932,650.7286 407.4832,664.7886" fill="none" id="AF2-to-T2" style="stroke:#181818;stroke-width:1;"/><polygon fill="#181818" points="402.55,668.2038,412.2266,666.3699,406.661,665.3578,407.6731,659.7922,402.55,668.2038" style="stroke:#181818;stroke-width:1;"/><text fill="#000000" font-family="sans-serif" font-size="13" lengthAdjust="spacing" textLength="49.0864" x="546" y="611.6606">verified</text></g><!--link AF3 to T3--><g class="link" data-entity-1="ent0016" data-entity-2="ent0021" data-link-type="dependency" data-source-line="55" id="lnk38"><path d="M821.92,564.1837 C773.85,592.1838 695.6343,637.7234 647.1443,665.9734" fill="none" id="AF3-to-T3" style="stroke:#181818;stroke-width:1;"/><polygon fill="#181818" points="641.96,668.9938,651.7501,667.9194,646.2803,666.4768,647.7229,661.007,641.96,668.9938" style="stroke:#181818;stroke-width:1;"/><text fill="#000000" font-family="sans-serif" font-size="13" lengthAdjust="spacing" textLength="49.0864" x="762" y="611.6606">verified</text></g><!--link AF3 to T4--><g class="link" data-entity-1="ent0016" data-entity-2="ent0022" data-link-type="dependency" data-source-line="56" id="lnk39"><path d="M859,566.7838 C859,594.5638 859,633.8438 859,661.4038" fill="none" id="AF3-to-T4" style="stroke:#181818;stroke-width:1;"/><polygon fill="#181818" points="859,667.4038,863,658.4038,859,662.4038,855,658.4038,859,667.4038" style="stroke:#181818;stroke-width:1;"/><text fill="#000000" font-family="sans-serif" font-size="13" lengthAdjust="spacing" textLength="49.0864" x="860" y="611.6606">verified</text></g><!--link AF3 to T5--><g class="link" data-entity-1="ent0016" data-entity-2="ent0023" data-link-type="dependency" data-source-line="57" id="lnk40"><path d="M902.03,563.2238 C920.17,571.8238 941.55,581.8338 961,590.5938 C986.59,602.1238 991.63,609.3638 1019,615.5938 C1061.94,625.3638 1174.46,612.2238 1217,623.5938 C1251.55,632.8338 1282.2361,649.2972 1307.3161,665.0172" fill="none" id="AF3-to-T5" style="stroke:#181818;stroke-width:1;"/><polygon fill="#181818" points="1312.4,668.2038,1306.8985,660.0347,1308.1634,665.5483,1302.6498,666.8132,1312.4,668.2038" style="stroke:#181818;stroke-width:1;"/><text fill="#000000" font-family="sans-serif" font-size="13" lengthAdjust="spacing" textLength="49.0864" x="1020" y="611.6606">verified</text></g><!--link AE2 to T7--><g class="link" data-entity-1="ent0017" data-entity-2="ent0024" data-link-type="dependency" data-source-line="58" id="lnk41"><path d="M1069.78,565.7938 C1076.73,593.6938 1086.8802,634.4015 1093.8102,662.2315" fill="none" id="AE2-to-T7" style="stroke:#181818;stroke-width:1;"/><polygon fill="#181818" points="1095.26,668.0538,1096.9668,658.3539,1094.0518,663.2019,1089.2038,660.287,1095.26,668.0538" style="stroke:#181818;stroke-width:1;"/><text fill="#000000" font-family="sans-serif" font-size="13" lengthAdjust="spacing" textLength="49.0864" x="1082" y="611.6606">verified</text></g><!--link SR2 to T5--><g class="link" data-entity-1="ent0006" data-entity-2="ent0023" data-link-type="dependency" data-source-line="60" id="lnk42"><path d="M893.94,277.3338 C916.19,287.3638 943.95,298.3837 970,304.5938 C1015.76,315.5037 1142.59,294.4338 1181,321.5938 C1300.88,406.3838 1334.2453,593.0502 1342.7353,660.9202" fill="none" id="SR2-to-T5" style="stroke:#181818;stroke-width:1;"/><polygon fill="#181818" points="1343.48,666.8738,1346.3319,657.4469,1342.8594,661.9124,1338.3938,658.4398,1343.48,666.8738" style="stroke:#181818;stroke-width:1;"/><text fill="#000000" font-family="sans-serif" font-size="13" lengthAdjust="spacing" textLength="49.0864" x="1289" y="461.6606">verified</text></g><?plantuml-src TLLHRjim3FskJq5qmFuA97Qohlqea3fo4w1DDbihK210e3fAejMHEadf5WmxmEwn_UyCEyfECifMMyT9ce_A9DyZdqZQva78HwRP2kvP_h3GQYrdiIgKXZT9p_s2m0fRSA3Py0QePZbdzw8GTWCtp6hnRI9J_cKjD5znQGrSG4_dIs5vRjUQu-Cjrs8kScQ5aa6WqSxa0lcECpRdo7AbM66ECLj2MfSXV0-EreRdpBY8gtFueFaJ4a-aNNAzOWNCs8ej-34m0zbLE_YnZxDUKKaTuzyMTKe-JhDUGkZTjDLgJwIh0cPyBgHmXLRqQViG8fp8FdSQuQkmIo6XtMgjZ4U5Xr2Hkwj7fIqOh1ECPTOBIQE6a6GjSrS8LjKGGzgNX9pkY4a-ZU9AIgyVGwxa4zVcMKcoeyI7euwH4cYSYy9Ye-J2nuVxur41NMfkbggOmR-Vlr7stp-nnqJxCPs976mCidCZ389-dNLVCPs6xlhmeDZuFNaNdss9xQNneAOsuzBWiFQrGC4bQIzf7mX7jKcfqyU51-9GPUPwWnEErKZkmwDcE4dJSUfvcIXEN5UhM18sTDMt0Du2vSQYlCk8T9FjmQGaezDuFBebQJOSZogHAR9mO7c-nltRb2bekmbAXjUKf1MWQghcdtd-CiuqR2Be82NPO7pThq1LCt4BR1qLDL63kmppa6oOLR2odPWhLzW1Nrod2IAZ_fIEotybw1glL-ORDmxTvysXtHr9lU5rkJxF1S8Sxnb7mmDEtItZMm1EJYxATNqzXxLpX45fM3wuJNWzXxLpXEV8dpj1W87b0quJd8DOFHRb1l8PUaBl2NSyaVT4EvxE0K_W4ZWNTNcUoZ51ioClhU6sjKf0extMpbvhTyjAFEzftVfo3Tl1WLIu1FVAMhKAZcBboaQ3hNy4vjhvJFNUNRXtETWbVaKMIs2rNGwEh0ABK-_P_VU0oncu9C5_?></g></svg>