<?plantuml 1.2026.1?><svg xmlns="http://www.w3.org/2000/svg" xmlns:xlink="http://www.w3.org/1999/xlink" contentStyleType="text/css" data-diagram-type="DESCRIPTION" height="1272px" preserveAspectRatio="none" style="width:795px;height:1272px;background:#FAFAFA;" version="1.1" viewBox="0 0 795 1272" width="795px" zoomAndPan="magnify"><title>TSIM Data Flow Diagram
With 100ms Latency Budget (REQ_SAFETY_002)</title><defs/><g><rect fill="#FAFAFA" height="1272" style="stroke:none;stroke-width:1;" width="795" x="0" y="0"/><g class="title" data-source-line="7"><text fill="#000000" font-family="sans-serif" font-size="14" font-weight="bold" lengthAdjust="spacing" textLength="194.3457" x="293.4929" y="22.9951">TSIM Data Flow Diagram</text><text fill="#000000" font-family="sans-serif" font-size="14" font-weight="bold" lengthAdjust="spacing" textLength="375.3545" x="202.9885" y="39.292">With 100ms Latency Budget (REQ_SAFETY_002)</text></g><!--cluster Timing Budget: 0-100ms--><g class="cluster" data-qualified-name="Timing Budget. 0-100ms" data-source-line="9" id="ent0002"><rect fill="#FFE0B2" height="1087" rx="2.5" ry="2.5" style="stroke:#181818;stroke-width:1;" width="600" x="7" y="60.5938"/><text fill="#000000" font-family="sans-serif" font-size="14" font-weight="bold" lengthAdjust="spacing" textLength="193.6348" x="210.1826" y="75.5889">Timing Budget: 0-100ms</text></g><!--cluster 0-10ms: Sensor Read--><g class="cluster" data-qualified-name="Timing Budget. 0-100ms.0-10ms. Sensor Read" data-source-line="10" id="ent0003"><rect fill="#B3E5FC" height="235" rx="2.5" ry="2.5" style="stroke:#181818;stroke-width:1;" width="191" x="392" y="103.5938"/><text fill="#000000" font-family="sans-serif" font-size="14" font-weight="bold" lengthAdjust="spacing" textLength="167.4463" x="403.7769" y="118.5889">0-10ms: Sensor Read</text></g><!--cluster 10-20ms: Filter--><g class="cluster" data-qualified-name="Timing Budget. 0-100ms.10-20ms. Filter" data-source-line="15" id="ent0006"><rect fill="#B3E5FC" height="220" rx="2.5" ry="2.5" style="stroke:#181818;stroke-width:1;" width="186" x="384" y="402.5938"/><text fill="#000000" font-family="sans-serif" font-size="14" font-weight="bold" lengthAdjust="spacing" textLength="120.4219" x="416.7891" y="417.5889">10-20ms: Filter</text></g><!--cluster 20-50ms: State Machine--><g class="cluster" data-qualified-name="Timing Budget. 0-100ms.20-50ms. State Machine" data-source-line="20" id="ent0009"><rect fill="#B3E5FC" height="432.5" rx="2.5" ry="2.5" style="stroke:#181818;stroke-width:1;" width="314" x="269" y="686.5938"/><text fill="#000000" font-family="sans-serif" font-size="14" font-weight="bold" lengthAdjust="spacing" textLength="191.3584" x="330.3208" y="701.5889">20-50ms: State Machine</text></g><!--cluster 50-100ms: Safety Margin--><g class="cluster" data-qualified-name="Timing Budget. 0-100ms.50-100ms. Safety Margin" data-source-line="26" id="ent0013"><rect fill="#FFCDD2" height="106" rx="2.5" ry="2.5" style="stroke:#181818;stroke-width:1;" width="214" x="31" y="1017.5938"/><text fill="#000000" font-family="sans-serif" font-size="14" font-weight="bold" lengthAdjust="spacing" textLength="198.7891" x="38.6055" y="1032.5889">50-100ms: Safety Margin</text></g><!--entity ADC1--><g class="entity" data-qualified-name="Timing Budget. 0-100ms.0-10ms. Sensor Read.ADC1" data-source-line="11" id="ent0004"><rect fill="#F1F1F1" height="46.2969" rx="2.5" ry="2.5" style="stroke:#181818;stroke-width:0.5;" width="110.834" x="407.5" y="138.5938"/><rect fill="#F1F1F1" height="10" style="stroke:#181818;stroke-width:0.5;" width="15" x="498.334" y="143.5938"/><rect fill="#F1F1F1" height="2" style="stroke:#181818;stroke-width:0.5;" width="4" x="496.334" y="145.5938"/><rect fill="#F1F1F1" height="2" style="stroke:#181818;stroke-width:0.5;" width="4" x="496.334" y="149.5938"/><text fill="#000000" font-family="sans-serif" font-size="14" lengthAdjust="spacing" textLength="70.834" x="422.5" y="171.5889">ADC Input</text></g><!--entity Conv--><g class="entity" data-qualified-name="Timing Budget. 0-100ms.0-10ms. Sensor Read.Conv" data-source-line="12" id="ent0005"><rect fill="#F1F1F1" height="46.2969" rx="2.5" ry="2.5" style="stroke:#181818;stroke-width:0.5;" width="135.0879" x="409.5" y="276.5938"/><rect fill="#F1F1F1" height="10" style="stroke:#181818;stroke-width:0.5;" width="15" x="524.5879" y="281.5938"/><rect fill="#F1F1F1" height="2" style="stroke:#181818;stroke-width:0.5;" width="4" x="522.5879" y="283.5938"/><rect fill="#F1F1F1" height="2" style="stroke:#181818;stroke-width:0.5;" width="4" x="522.5879" y="287.5938"/><text fill="#000000" font-family="sans-serif" font-size="14" lengthAdjust="spacing" textLength="95.0879" x="424.5" y="309.5889">Convert to &#176;C</text></g><!--entity Buf--><g class="entity" data-qualified-name="Timing Budget. 0-100ms.10-20ms. Filter.Buf" data-source-line="16" id="ent0007"><rect fill="#F1F1F1" height="46.2969" rx="2.5" ry="2.5" style="stroke:#181818;stroke-width:0.5;" width="153.6064" x="400" y="437.5938"/><rect fill="#F1F1F1" height="10" style="stroke:#181818;stroke-width:0.5;" width="15" x="533.6064" y="442.5938"/><rect fill="#F1F1F1" height="2" style="stroke:#181818;stroke-width:0.5;" width="4" x="531.6064" y="444.5938"/><rect fill="#F1F1F1" height="2" style="stroke:#181818;stroke-width:0.5;" width="4" x="531.6064" y="448.5938"/><text fill="#000000" font-family="sans-serif" font-size="14" lengthAdjust="spacing" textLength="113.6064" x="415" y="470.5889">5-Sample Buffer</text></g><!--entity Avg--><g class="entity" data-qualified-name="Timing Budget. 0-100ms.10-20ms. Filter.Avg" data-source-line="17" id="ent0008"><rect fill="#F1F1F1" height="46.2969" rx="2.5" ry="2.5" style="stroke:#181818;stroke-width:0.5;" width="153.3398" x="400.5" y="560.5938"/><rect fill="#F1F1F1" height="10" style="stroke:#181818;stroke-width:0.5;" width="15" x="533.8398" y="565.5938"/><rect fill="#F1F1F1" height="2" style="stroke:#181818;stroke-width:0.5;" width="4" x="531.8398" y="567.5938"/><rect fill="#F1F1F1" height="2" style="stroke:#181818;stroke-width:0.5;" width="4" x="531.8398" y="571.5938"/><text fill="#000000" font-family="sans-serif" font-size="14" lengthAdjust="spacing" textLength="113.3398" x="415.5" y="593.5889">Moving Average</text></g><!--entity Thresh--><g class="entity" data-qualified-name="Timing Budget. 0-100ms.20-50ms. State Machine.Thresh" data-source-line="21" id="ent0010"><rect fill="#F1F1F1" height="62.5938" rx="2.5" ry="2.5" style="stroke:#181818;stroke-width:0.5;" width="156.8193" x="333.5" y="721.5938"/><rect fill="#F1F1F1" height="10" style="stroke:#181818;stroke-width:0.5;" width="15" x="470.3193" y="726.5938"/><rect fill="#F1F1F1" height="2" style="stroke:#181818;stroke-width:0.5;" width="4" x="468.3193" y="728.5938"/><rect fill="#F1F1F1" height="2" style="stroke:#181818;stroke-width:0.5;" width="4" x="468.3193" y="732.5938"/><text fill="#000000" font-family="sans-serif" font-size="14" lengthAdjust="spacing" textLength="116.8193" x="348.5" y="754.5889">Threshold Check</text><text fill="#000000" font-family="sans-serif" font-size="14" lengthAdjust="spacing" textLength="73.582" x="348.5" y="770.8857">(&#8805;100&#176;C?)</text></g><!--entity Hyst--><g class="entity" data-qualified-name="Timing Budget. 0-100ms.20-50ms. State Machine.Hyst" data-source-line="22" id="ent0011"><rect fill="#F1F1F1" height="62.5938" rx="2.5" ry="2.5" style="stroke:#181818;stroke-width:0.5;" width="113.0557" x="342.5" y="876.5938"/><rect fill="#F1F1F1" height="10" style="stroke:#181818;stroke-width:0.5;" width="15" x="435.5557" y="881.5938"/><rect fill="#F1F1F1" height="2" style="stroke:#181818;stroke-width:0.5;" width="4" x="433.5557" y="883.5938"/><rect fill="#F1F1F1" height="2" style="stroke:#181818;stroke-width:0.5;" width="4" x="433.5557" y="887.5938"/><text fill="#000000" font-family="sans-serif" font-size="14" lengthAdjust="spacing" textLength="73.0557" x="357.5" y="909.5889">Hysteresis</text><text fill="#000000" font-family="sans-serif" font-size="14" lengthAdjust="spacing" textLength="64.6748" x="357.5" y="925.8857">(&#8804;95&#176;C?)</text></g><!--entity Out--><g class="entity" data-qualified-name="Timing Budget. 0-100ms.20-50ms. State Machine.Out" data-source-line="23" id="ent0012"><rect fill="#F1F1F1" height="46.2969" rx="2.5" ry="2.5" style="stroke:#181818;stroke-width:0.5;" width="130.1387" x="285" y="1057.0938"/><rect fill="#F1F1F1" height="10" style="stroke:#181818;stroke-width:0.5;" width="15" x="395.1387" y="1062.0938"/><rect fill="#F1F1F1" height="2" style="stroke:#181818;stroke-width:0.5;" width="4" x="393.1387" y="1064.0938"/><rect fill="#F1F1F1" height="2" style="stroke:#181818;stroke-width:0.5;" width="4" x="393.1387" y="1068.0938"/><text fill="#000000" font-family="sans-serif" font-size="14" lengthAdjust="spacing" textLength="90.1387" x="300" y="1090.0889">Output State</text></g><g class="entity" data-qualified-name="Timing Budget. 0-100ms.50-100ms. Safety Margin.GMN14" data-source-line="28" id="ent0015"><path d="M71,1052.5938 L71,1107.9922 A0,0 0 0 0 71,1107.9922 L229.2109,1107.9922 A0,0 0 0 0 229.2109,1107.9922 L229.2109,1084.0938 L284.93,1080.0938 L229.2109,1076.0938 L229.2109,1062.5938 L219.2109,1052.5938 L71,1052.5938 A0,0 0 0 0 71,1052.5938" fill="#FEFFDD" style="stroke:#181818;stroke-width:0.5;"/><path d="M219.2109,1052.5938 L219.2109,1062.5938 L229.2109,1062.5938 L219.2109,1052.5938" fill="#FEFFDD" style="stroke:#181818;stroke-width:0.5;"/><text fill="#000000" font-family="sans-serif" font-size="13" lengthAdjust="spacing" textLength="87.4771" x="77" y="1069.6606">Reserved for:</text><text fill="#000000" font-family="sans-serif" font-size="13" lengthAdjust="spacing" textLength="109.0972" x="77" y="1084.7935">Real-time delays</text><text fill="#000000" font-family="sans-serif" font-size="13" lengthAdjust="spacing" textLength="137.2109" x="77" y="1099.9263">Integration overhead</text></g><g class="entity" data-qualified-name="GMN24" data-source-line="44" id="ent0025"><path d="M623.5,440.5938 L623.5,480.8594 L788.3315,480.8594 L788.3315,450.5938 L778.3315,440.5938 L623.5,440.5938" fill="#FEFFDD" style="stroke:#181818;stroke-width:0.5;"/><path d="M778.3315,440.5938 L778.3315,450.5938 L788.3315,450.5938 L778.3315,440.5938" fill="#FEFFDD" style="stroke:#181818;stroke-width:1;"/><text fill="#000000" font-family="sans-serif" font-size="13" lengthAdjust="spacing" textLength="101.0864" x="629.5" y="457.6606">REQ_FUNC_001</text><text fill="#000000" font-family="sans-serif" font-size="13" lengthAdjust="spacing" textLength="143.8315" x="629.5" y="472.7935">Range: -40 to +125&#176;C</text></g><g class="entity" data-qualified-name="GMN27" data-source-line="49" id="ent0028"><path d="M623,733.0938 L623,773.3594 L745.0864,773.3594 L745.0864,743.0938 L735.0864,733.0938 L623,733.0938" fill="#FEFFDD" style="stroke:#181818;stroke-width:0.5;"/><path d="M735.0864,733.0938 L735.0864,743.0938 L745.0864,743.0938 L735.0864,733.0938" fill="#FEFFDD" style="stroke:#181818;stroke-width:1;"/><text fill="#000000" font-family="sans-serif" font-size="13" lengthAdjust="spacing" textLength="101.0864" x="629" y="750.1606">REQ_FUNC_002</text><text fill="#000000" font-family="sans-serif" font-size="13" lengthAdjust="spacing" textLength="100.8833" x="629" y="765.2935">Noise Rejection</text></g><g class="entity" data-qualified-name="GMN30" data-source-line="54" id="ent0031"><path d="M223,1194.5938 L223,1265.125 A0,0 0 0 0 223,1265.125 L477.1875,1265.125 A0,0 0 0 0 477.1875,1265.125 L477.1875,1204.5938 L467.1875,1194.5938 L354,1194.5938 L350,1103.2538 L346,1194.5938 L223,1194.5938 A0,0 0 0 0 223,1194.5938" fill="#FEFFDD" style="stroke:#181818;stroke-width:0.5;"/><path d="M467.1875,1194.5938 L467.1875,1204.5938 L477.1875,1204.5938 L467.1875,1194.5938" fill="#FEFFDD" style="stroke:#181818;stroke-width:0.5;"/><text fill="#000000" font-family="sans-serif" font-size="13" lengthAdjust="spacing" textLength="212.5576" x="229" y="1211.6606">REQ_SAFETY_002: Within 100ms</text><text fill="#000000" font-family="sans-serif" font-size="13" lengthAdjust="spacing" textLength="200.7637" x="229" y="1226.7935">REQ_SAFETY_003: Safe/Unsafe</text><text fill="#000000" font-family="sans-serif" font-size="13" lengthAdjust="spacing" textLength="160.8813" x="229" y="1241.9263">REQ_FUNC_003: &#8805;100&#176;C</text><text fill="#000000" font-family="sans-serif" font-size="13" lengthAdjust="spacing" textLength="233.1875" x="229" y="1257.0591">REQ_FUNC_004: &#8804;95&#176;C (hysteresis)</text></g><!--link ADC1 to Conv--><g class="link" data-entity-1="ent0004" data-entity-2="ent0005" data-link-type="dependency" data-source-line="35" id="lnk17"><path d="M465.28,184.7438 C467.88,210.0338 471.5064,245.1952 474.1064,270.4852" fill="none" id="ADC1-to-Conv" style="stroke:#181818;stroke-width:1;"/><polygon fill="#181818" points="474.72,276.4538,477.7786,267.0919,474.2087,271.48,469.8206,267.91,474.72,276.4538" style="stroke:#181818;stroke-width:1;"/><text fill="#000000" font-family="sans-serif" font-size="13" lengthAdjust="spacing" textLength="69.9575" x="498.3269" y="227.6606">Raw 12-bit</text><text fill="#000000" font-family="sans-serif" font-size="13" lengthAdjust="spacing" textLength="122.6113" x="472" y="242.7935">ARCH_SIGNAL_001</text></g><!--link Conv to Buf--><g class="link" data-entity-1="ent0005" data-entity-2="ent0007" data-link-type="dependency" data-source-line="36" id="lnk18"><path d="M477,322.7038 C477,352.9938 477,401.0938 477,431.4138" fill="none" id="Conv-to-Buf" style="stroke:#181818;stroke-width:1;"/><polygon fill="#181818" points="477,437.4138,481,428.4138,477,432.4138,473,428.4138,477,437.4138" style="stroke:#181818;stroke-width:1;"/><text fill="#000000" font-family="sans-serif" font-size="13" lengthAdjust="spacing" textLength="84.8428" x="490.7715" y="367.6606">Temperature</text><text fill="#000000" font-family="sans-serif" font-size="13" lengthAdjust="spacing" textLength="110.3857" x="478" y="382.7935">ARCH_FUNC_001</text></g><!--link Buf to Avg--><g class="link" data-entity-1="ent0007" data-entity-2="ent0008" data-link-type="dependency" data-source-line="37" id="lnk19"><path d="M477,483.7838 C477,505.6238 477,532.7538 477,554.5438" fill="none" id="Buf-to-Avg" style="stroke:#181818;stroke-width:1;"/><polygon fill="#181818" points="477,560.5438,481,551.5438,477,555.5438,473,551.5438,477,560.5438" style="stroke:#181818;stroke-width:1;"/><text fill="#000000" font-family="sans-serif" font-size="13" lengthAdjust="spacing" textLength="66.7266" x="478" y="526.6606">Buffer Full</text></g><!--link Avg to Thresh--><g class="link" data-entity-1="ent0008" data-entity-2="ent0010" data-link-type="dependency" data-source-line="38" id="lnk20"><path d="M468.37,606.8338 C456.94,636.2938 438.9006,682.7801 426.0406,715.9201" fill="none" id="Avg-to-Thresh" style="stroke:#181818;stroke-width:1;"/><polygon fill="#181818" points="423.87,721.5138,430.855,714.5704,425.6788,716.8524,423.3968,711.6763,423.87,721.5138" style="stroke:#181818;stroke-width:1;"/><text fill="#000000" font-family="sans-serif" font-size="13" lengthAdjust="spacing" textLength="90.3779" x="472.1167" y="651.6606">Filtered Temp</text><text fill="#000000" font-family="sans-serif" font-size="13" lengthAdjust="spacing" textLength="122.6113" x="456" y="666.7935">ARCH_SIGNAL_002</text></g><!--link Thresh to Hyst--><g class="link" data-entity-1="ent0010" data-entity-2="ent0011" data-link-type="dependency" data-source-line="39" id="lnk21"><path d="M409.4,784.6837 C407.13,811.3738 404.3688,843.9054 402.0988,870.5754" fill="none" id="Thresh-to-Hyst" style="stroke:#181818;stroke-width:1;"/><polygon fill="#181818" points="401.59,876.5538,406.3389,867.9254,402.014,871.5718,398.3677,867.2469,401.59,876.5538" style="stroke:#181818;stroke-width:1;"/><text fill="#000000" font-family="sans-serif" font-size="13" lengthAdjust="spacing" textLength="84.8428" x="419.7715" y="827.6606">Temperature</text><text fill="#000000" font-family="sans-serif" font-size="13" lengthAdjust="spacing" textLength="110.3857" x="407" y="842.7935">ARCH_FUNC_002</text></g><!--link Hyst to Out--><g class="link" data-entity-1="ent0011" data-entity-2="ent0012" data-link-type="dependency" data-source-line="40" id="lnk22"><path d="M390.13,939.8838 C380.39,973.6538 366.6726,1021.2687 358.0526,1051.1587" fill="none" id="Hyst-to-Out" style="stroke:#181818;stroke-width:1;"/><polygon fill="#181818" points="356.39,1056.9238,362.7272,1049.3846,357.7755,1052.1195,355.0405,1047.1678,356.39,1056.9238" style="stroke:#181818;stroke-width:1;"/><text fill="#000000" font-family="sans-serif" font-size="13" lengthAdjust="spacing" textLength="93.8882" x="389.2488" y="982.6606">State Decision</text><text fill="#000000" font-family="sans-serif" font-size="13" lengthAdjust="spacing" textLength="110.3857" x="381" y="997.7935">ARCH_FUNC_003</text></g><!--link Out to Out--><g class="link" data-entity-1="ent0012" data-entity-2="ent0012" data-link-type="dependency" data-source-line="41" id="lnk23"><path d="M415.4,1064.3738 C434.86,1064.8438 450,1070.0838 450,1080.0938 C450,1090.1038 440.8583,1095.1989 421.3983,1095.6689" fill="none" id="Out-to-Out" style="stroke:#181818;stroke-width:1;"/><polygon fill="#181818" points="415.4,1095.8138,424.494,1099.5953,420.3985,1095.693,424.3008,1091.5976,415.4,1095.8138" style="stroke:#181818;stroke-width:1;"/><text fill="#000000" font-family="sans-serif" font-size="13" lengthAdjust="spacing" textLength="89.2925" x="472.6594" y="1077.1606">SAFE/UNSAFE</text><text fill="#000000" font-family="sans-serif" font-size="13" lengthAdjust="spacing" textLength="122.6113" x="456" y="1092.2935">ARCH_SIGNAL_003</text></g><!--link Conv to GMN24--><g class="link" data-entity-1="ent0005" data-entity-2="ent0025" data-link-type="association" data-source-line="44" id="lnk26"><path d="M536.82,322.7038 C556.75,331.3038 578.55,342.1138 597,354.5938 C634,379.6238 669.92,417.7138 689.89,440.4838" fill="none" id="Conv-GMN24" style="stroke:#181818;stroke-width:1;stroke-dasharray:7,7;"/></g><!--link Avg to GMN27--><g class="link" data-entity-1="ent0008" data-entity-2="ent0028" data-link-type="association" data-source-line="49" id="lnk29"><path d="M533.01,606.7038 C551.16,615.2338 570.78,626.0038 587,638.5938 C622.43,666.0838 654.27,708.2538 671.19,732.7038" fill="none" id="Avg-GMN27" style="stroke:#181818;stroke-width:1;stroke-dasharray:7,7;"/></g><?plantuml-src VPHTRjf04CUVsLDCw4kYoefnGjNmqCeOt28bqDf4LQL8Q8CNUnjx5zaB4QfoWDwZVUyPUfIUf3Dh835A2W-6dTzy_zT7YLX89U1JD0c6SJmB9fUJ25xrpuRTC617MsiydKJ3dIruEtmJNEnj0t_gxqnX65u4vunLTr8jUSaBkENpkxJKAvK4EjSb8Zvz6JFIv0AcyUWA1jnm27Dz3mF9K_IwKL-aoQ3ZkaK5bzm8DTz0VvMami1nDFmyY_rmEFqwSrtlXB5Ip0rNAKPhJsKXLRf5U-0wDaIR2XkwVG--izOJcin5rODOg0fBYmHFshlM2MtDTR7KIYW3RNyGm4WjLwODl0ByrsdQ0wtMeZHWDFpv7LY8ZbZhWG5-6daxhkFPnA7CZIXVpDbrObuiqQE_MYo8mw3uimbTwJMrx6DsdegwkdNwR5xFTRfrmmPd2bTydk42Nqm_pKfHPJfF8CZ4_Ev67V_zyGi7YlszFx69QgBfzN5JOK-YafLr-7dHVUJ9rgGdAuCphGko21uyMtjtkqiidY-4sM3rPIgLNMqm6DZLjfJ6jagPPfIb5ObAb6kHm4ANlVg0vuwHXO14v7nJqTb86O6ICr8hq3Z334M0vq8bGD6ebWV6QD_WEE_iJg474R-7ZkVSIdEZ_2ZuE8j77yR-9Ggomon2BAuAqQaebhWQioh5bWslnu4b2I0GzuLWlMG8LtdEw8GizO1XfnJiXS8TvlJObYCNcl7_qdhC4eJYh64dXe6Oomg7q8JF635FMBntfzTZUXmMSSQO7V-jDaONe1TR_TDrtNVSYd2TeWVEkKitvNN78tMm_RGFGrWbFudWiTPOoqhWNVs6si1wN_QrIcg-B7f0xnMfwZVBWVMibjRfjQhmqKYBfhtq6uPpCjGIX-Dih_oJnwh-0G00?></g></svg>